<svg xmlns="http://www.w3.org/2000/svg" xmlns:xlink="http://www.w3.org/1999/xlink" width="1706.67" height="960"><defs><filter id="Z" color-interpolation-filters="sRGB"><feGaussianBlur stdDeviation="5 5" result="blur"/></filter><filter id="X" color-interpolation-filters="sRGB"><feGaussianBlur stdDeviation="5 5" result="blur"/></filter><filter id="ab" color-interpolation-filters="sRGB"><feGaussianBlur stdDeviation="5 5" result="blur"/></filter><filter id="ad" color-interpolation-filters="sRGB"><feGaussianBlur stdDeviation="5 5" result="blur"/></filter><filter id="af" color-interpolation-filters="sRGB"><feGaussianBlur stdDeviation="5 5" result="blur"/></filter><filter id="ah" color-interpolation-filters="sRGB"><feGaussianBlur stdDeviation="5 5" result="blur"/></filter><filter id="aj" color-interpolation-filters="sRGB"><feGaussianBlur stdDeviation="5 5" result="blur"/></filter><filter id="al" color-interpolation-filters="sRGB"><feGaussianBlur stdDeviation="5 5" result="blur"/></filter><filter id="an" color-interpolation-filters="sRGB"><feGaussianBlur stdDeviation="5 5" result="blur"/></filter><filter id="ap" color-interpolation-filters="sRGB"><feGaussianBlur stdDeviation="5 5" result="blur"/></filter><filter id="ar" color-interpolation-filters="sRGB"><feGaussianBlur stdDeviation="5 5" result="blur"/></filter><filter id="at" color-interpolation-filters="sRGB"><feGaussianBlur stdDeviation="5 5" result="blur"/></filter><filter id="av" color-interpolation-filters="sRGB"><feGaussianBlur stdDeviation="5 5" result="blur"/></filter><filter id="ax" color-interpolation-filters="sRGB"><feGaussianBlur stdDeviation="5 5" result="blur"/></filter><filter id="az" color-interpolation-filters="sRGB"><feGaussianBlur stdDeviation="5 5" result="blur"/></filter><filter id="aB" color-interpolation-filters="sRGB"><feGaussianBlur stdDeviation="5 5" result="blur"/></filter><filter id="aD" color-interpolation-filters="sRGB"><feGaussianBlur stdDeviation="5 5" result="blur"/></filter><filter id="aF" color-interpolation-filters="sRGB"><feGaussianBlur stdDeviation="5 5" result="blur"/></filter><filter id="T" color-interpolation-filters="sRGB"><feGaussianBlur stdDeviation="5 5" result="blur"/></filter><filter id="V" color-interpolation-filters="sRGB"><feGaussianBlur stdDeviation="5 5" result="blur"/></filter><filter id="P" color-interpolation-filters="sRGB"><feGaussianBlur stdDeviation="5 5" result="blur"/></filter><filter id="R" color-interpolation-filters="sRGB"><feGaussianBlur stdDeviation="5 5" result="blur"/></filter><filter id="a" color-interpolation-filters="sRGB"><feGaussianBlur stdDeviation="5 5" result="blur"/></filter><filter id="b" color-interpolation-filters="sRGB"><feGaussianBlur stdDeviation="5 5" result="blur"/></filter><filter id="c" color-interpolation-filters="sRGB"><feGaussianBlur stdDeviation="5 5" result="blur"/></filter><filter id="d" color-interpolation-filters="sRGB"><feGaussianBlur stdDeviation="5 5" result="blur"/></filter><filter id="e" color-interpolation-filters="sRGB"><feGaussianBlur stdDeviation="5 5" result="blur"/></filter><filter id="f" color-interpolation-filters="sRGB"><feGaussianBlur stdDeviation="5 5" result="blur"/></filter><filter id="g" color-interpolation-filters="sRGB"><feGaussianBlur stdDeviation="5 5" result="blur"/></filter><filter id="h" color-interpolation-filters="sRGB"><feGaussianBlur stdDeviation="5 5" result="blur"/></filter><filter id="i" color-interpolation-filters="sRGB"><feGaussianBlur stdDeviation="5 5" result="blur"/></filter><filter id="j" color-interpolation-filters="sRGB"><feGaussianBlur stdDeviation="5 5" result="blur"/></filter><filter id="k" color-interpolation-filters="sRGB"><feGaussianBlur stdDeviation="5 5" result="blur"/></filter><filter id="l" color-interpolation-filters="sRGB"><feGaussianBlur stdDeviation="5 5" result="blur"/></filter><filter id="m" color-interpolation-filters="sRGB"><feGaussianBlur stdDeviation="5 5" result="blur"/></filter><filter id="n" color-interpolation-filters="sRGB"><feGaussianBlur stdDeviation="5 5" result="blur"/></filter><filter id="o" color-interpolation-filters="sRGB"><feGaussianBlur stdDeviation="5 5" result="blur"/></filter><filter id="aG" color-interpolation-filters="sRGB"><feGaussianBlur stdDeviation="5 10" result="blur"/></filter><filter id="aH" color-interpolation-filters="sRGB"><feGaussianBlur stdDeviation="5 10" result="blur"/></filter><filter id="aJ" color-interpolation-filters="sRGB"><feGaussianBlur stdDeviation="5 10" result="blur"/></filter><filter id="aI" color-interpolation-filters="sRGB"><feGaussianBlur stdDeviation="5 10" result="blur"/></filter><filter id="q" color-interpolation-filters="sRGB"><feGaussianBlur stdDeviation="5 10" result="blur"/></filter><filter id="p" color-interpolation-filters="sRGB"><feGaussianBlur stdDeviation="5 10" result="blur"/></filter><filter id="r" color-interpolation-filters="sRGB"><feGaussianBlur stdDeviation="5 10" result="blur"/></filter><filter id="s" color-interpolation-filters="sRGB"><feGaussianBlur stdDeviation="5 10" result="blur"/></filter><filter id="t" color-interpolation-filters="sRGB"><feGaussianBlur stdDeviation="5 10" result="blur"/></filter><filter id="u" color-interpolation-filters="sRGB"><feGaussianBlur stdDeviation="5 10" result="blur"/></filter><filter id="v" color-interpolation-filters="sRGB"><feGaussianBlur stdDeviation="5 10" result="blur"/></filter><filter id="w" color-interpolation-filters="sRGB"><feGaussianBlur stdDeviation="5 10" result="blur"/></filter><filter id="x" color-interpolation-filters="sRGB"><feGaussianBlur stdDeviation="5 10" result="blur"/></filter><filter id="y" color-interpolation-filters="sRGB"><feGaussianBlur stdDeviation="5 10" result="blur"/></filter><filter id="z" color-interpolation-filters="sRGB"><feGaussianBlur stdDeviation="5 10" result="blur"/></filter><filter id="A" color-interpolation-filters="sRGB"><feGaussianBlur stdDeviation="5 10" result="blur"/></filter><filter id="aK" color-interpolation-filters="sRGB"><feGaussianBlur stdDeviation="5 10" result="blur"/></filter><filter id="aL" color-interpolation-filters="sRGB"><feGaussianBlur stdDeviation="5 10" result="blur"/></filter><filter id="aM" color-interpolation-filters="sRGB"><feGaussianBlur stdDeviation="5 10" result="blur"/></filter><filter id="aN" color-interpolation-filters="sRGB"><feGaussianBlur stdDeviation="5 10" result="blur"/></filter><filter id="C" color-interpolation-filters="sRGB"><feGaussianBlur stdDeviation="5 10" result="blur"/></filter><filter id="D" color-interpolation-filters="sRGB"><feGaussianBlur stdDeviation="5 10" result="blur"/></filter><filter id="E" color-interpolation-filters="sRGB"><feGaussianBlur stdDeviation="5 10" result="blur"/></filter><filter id="F" color-interpolation-filters="sRGB"><feGaussianBlur stdDeviation="5 10" result="blur"/></filter><filter id="G" color-interpolation-filters="sRGB"><feGaussianBlur stdDeviation="5 10" result="blur"/></filter><filter id="H" color-interpolation-filters="sRGB"><feGaussianBlur stdDeviation="5 10" result="blur"/></filter><filter id="I" color-interpolation-filters="sRGB"><feGaussianBlur stdDeviation="5 10" result="blur"/></filter><filter id="J" color-interpolation-filters="sRGB"><feGaussianBlur stdDeviation="5 10" result="blur"/></filter><filter id="B" color-interpolation-filters="sRGB"><feGaussianBlur stdDeviation="5 10" result="blur"/></filter><filter id="K" color-interpolation-filters="sRGB"><feGaussianBlur stdDeviation="5 10" result="blur"/></filter><filter id="L" color-interpolation-filters="sRGB"><feGaussianBlur stdDeviation="5 10" result="blur"/></filter><filter id="M" color-interpolation-filters="sRGB"><feGaussianBlur stdDeviation="5 10" result="blur"/></filter><filter id="N" color-interpolation-filters="sRGB"><feGaussianBlur stdDeviation="5 10" result="blur"/></filter><filter id="aO" color-interpolation-filters="sRGB"><feGaussianBlur stdDeviation="5 10" result="blur"/></filter><filter id="aP" color-interpolation-filters="sRGB"><feGaussianBlur stdDeviation="5 10" result="blur"/></filter><filter id="aQ" color-interpolation-filters="sRGB"><feGaussianBlur stdDeviation="5 10" result="blur"/></filter></defs><path fill="#140f18" d="M0 0h1706.67v1066H0z"/><path d="M121.47 147.54a20 20 0 01-20 20 20 20 0 01-20-20 20 20 0 0120-20 20 20 0 0120 20" transform="translate(-23.97 -38.22) scale(1.30936)" fill="#a93e27" filter="url(#a)"/><path d="M121.47 147.54a20 20 0 01-20 20 20 20 0 01-20-20 20 20 0 0120-20 20 20 0 0120 20" transform="translate(-43.41 68.2) scale(1.30936)" fill="#a93e27" filter="url(#b)"/><path d="M121.47 147.54a20 20 0 01-20 20 20 20 0 01-20-20 20 20 0 0120-20 20 20 0 0120 20" transform="translate(-93.98 230.96) scale(1.30936)" fill="#a93e27" filter="url(#c)"/><path d="M121.47 147.54a20 20 0 01-20 20 20 20 0 01-20-20 20 20 0 0120-20 20 20 0 0120 20" transform="translate(276.12 -75.04) scale(1.30936)" fill="#a93e27" filter="url(#d)"/><path d="M121.47 147.54a20 20 0 01-20 20 20 20 0 01-20-20 20 20 0 0120-20 20 20 0 0120 20" transform="translate(871.4 -113.81) scale(1.30936)" fill="#a93e27" filter="url(#e)"/><path d="M121.47 147.54a20 20 0 01-20 20 20 20 0 01-20-20 20 20 0 0120-20 20 20 0 0120 20" transform="translate(958.13 -91.84) scale(1.30936)" fill="#a93e27" filter="url(#f)"/><path d="M121.47 147.54a20 20 0 01-20 20 20 20 0 01-20-20 20 20 0 0120-20 20 20 0 0120 20" transform="translate(1031.37 57.9) scale(1.30936)" fill="#a93e27" filter="url(#g)"/><path d="M121.47 147.54a20 20 0 01-20 20 20 20 0 01-20-20 20 20 0 0120-20 20 20 0 0120 20" transform="translate(952.14 129.82) scale(1.30936)" fill="#a93e27" filter="url(#h)"/><path d="M121.47 147.54a20 20 0 01-20 20 20 20 0 01-20-20 20 20 0 0120-20 20 20 0 0120 20" transform="translate(1073.03 -29.55) scale(1.30936)" fill="#a93e27" filter="url(#i)"/><path d="M121.47 147.54a20 20 0 01-20 20 20 20 0 01-20-20 20 20 0 0120-20 20 20 0 0120 20" transform="translate(1380.14 -71.67) scale(1.30936)" fill="#a93e27" filter="url(#j)"/><path d="M121.47 147.54a20 20 0 01-20 20 20 20 0 01-20-20 20 20 0 0120-20 20 20 0 0120 20" transform="translate(1458.14 -7.17) scale(1.30936)" fill="#a93e27" filter="url(#k)"/><path d="M121.47 147.54a20 20 0 01-20 20 20 20 0 01-20-20 20 20 0 0120-20 20 20 0 0120 20" transform="translate(1368.14 50.83) scale(1.30936)" fill="#a93e27" filter="url(#l)"/><path d="M121.47 147.54a20 20 0 01-20 20 20 20 0 01-20-20 20 20 0 0120-20 20 20 0 0120 20" transform="translate(1450.14 218.82) scale(1.30936)" fill="#a93e27" filter="url(#m)"/><path d="M121.47 147.54a20 20 0 01-20 20 20 20 0 01-20-20 20 20 0 0120-20 20 20 0 0120 20" transform="translate(220.7 188.41) scale(1.30936)" fill="#a93e27" filter="url(#n)"/><path d="M121.47 147.54a20 20 0 01-20 20 20 20 0 01-20-20 20 20 0 0120-20 20 20 0 0120 20" transform="translate(691.63 -39.28) scale(1.30936)" fill="#a93e27" filter="url(#o)"/><path d="M348.5 666h96v240h-96z" transform="matrix(.75123 0 0 .65813 -165.63 174.99)" fill="#66b96c" filter="url(#p)"/><path d="M372.5 726h48v120h-48z" transform="matrix(.76178 0 0 .6722 -169.82 152.35)" fill="#bbfba7" filter="url(#q)"/><path d="M348.5 666h96v240h-96z" transform="matrix(.43819 0 0 .38388 153.3 236.23)" fill="#66b96c" filter="url(#r)"/><path d="M372.5 726h48v120h-48z" transform="matrix(.44434 0 0 .39209 150.85 223.02)" fill="#bbfba7" filter="url(#s)"/><path d="M348.5 666h96v240h-96z" transform="matrix(.43819 0 0 .38388 338.2 238.25)" fill="#66b96c" filter="url(#t)"/><path d="M372.5 726h48v120h-48z" transform="matrix(.44434 0 0 .39209 335.76 225.04)" fill="#bbfba7" filter="url(#u)"/><path d="M348.5 666h96v240h-96z" transform="matrix(.3485 0 0 .30532 890.44 279.5)" fill="#66b96c" filter="url(#v)"/><path d="M372.5 726h48v120h-48z" transform="matrix(.3534 0 0 .31184 888.5 268.99)" fill="#bbfba7" filter="url(#w)"/><path d="M348.5 666h96v240h-96z" transform="matrix(.40175 0 0 .35197 1108.08 253.79)" fill="#66b96c" filter="url(#x)"/><path d="M372.5 726h48v120h-48z" transform="matrix(.4074 0 0 .35949 1105.84 241.68)" fill="#bbfba7" filter="url(#y)"/><path d="M348.5 666h96v240h-96z" transform="matrix(.52226 0 0 .45754 1293.98 250)" fill="#66b96c" filter="url(#z)"/><path d="M372.5 726h48v120h-48z" transform="matrix(.5296 0 0 .46732 1291.07 234.26)" fill="#bbfba7" filter="url(#A)"/><path transform="matrix(.5794 0 0 .29852 190 367.3)" fill="#253326" filter="url(#B)" d="M519.72 769.43h70.36V891.7h-70.36z"/><path d="M348.5 666h96v240h-96z" transform="matrix(.42622 0 0 .3734 504.17 240.73)" fill="#73d7d4" filter="url(#C)"/><path d="M372.5 726h48v120h-48z" transform="matrix(.4322 0 0 .38138 501.8 227.89)" fill="#c3fbe2" filter="url(#D)"/><path transform="matrix(1.08078 0 0 .88929 -41.15 106.36)" fill="#2c394b" filter="url(#E)" d="M519.72 769.43h70.36V891.7h-70.36z"/><path transform="matrix(.81747 0 0 .81532 676.13 48.57)" fill="#31425c" filter="url(#F)" d="M519.72 769.43h70.36V891.7h-70.36z"/><path transform="matrix(1.09625 0 0 .90086 -331.9 210.77)" fill="#253326" filter="url(#G)" d="M519.72 769.43h70.36V891.7h-70.36z"/><path transform="matrix(1.2892 0 0 .80383 484.55 339.55)" fill="#253326" filter="url(#H)" d="M519.72 769.43h70.36V891.7h-70.36z"/><path transform="matrix(1.13805 0 0 .6105 -501.4 310.95)" fill="#253326" filter="url(#I)" d="M519.72 769.43h70.36V891.7h-70.36z"/><path transform="matrix(.59523 0 0 .33106 -4.16 328.32)" fill="#253326" filter="url(#J)" d="M519.72 769.43h70.36V891.7h-70.36z"/><path transform="matrix(.64353 0 0 .30658 667.65 328.47)" fill="#253326" filter="url(#K)" d="M519.72 769.43h70.36V891.7h-70.36z"/><path transform="matrix(.7177 0 0 .34207 865.69 316.7)" fill="#253326" filter="url(#L)" d="M519.72 769.43h70.36V891.7h-70.36z"/><path transform="matrix(.67118 0 0 .59477 1125.57 212.47)" fill="#253326" filter="url(#M)" d="M519.72 769.43h70.36V891.7h-70.36z"/><path transform="matrix(.51823 0 0 .32705 381.44 336.37)" fill="#31425c" filter="url(#N)" d="M519.72 769.43h70.36V891.7h-70.36z"/><path d="M402.23 639.43L0 1054.43V960l402.26-348.42zm.05-87.48L0 826.33v-85.1l401.87-217.58zm.1-83.95L0 571.52v-84.15l401.98-50.5zm-.14-89.38L0 328.18v-83.42L402.3 350.8zm.23-91.12L0 81.94V0l402.53 259.67zm-5.95-168.13L232.7 0h52.24l111.64 91.55z"/><path d="M401.17 610.78h899.44v28.13H401.17zm4.19-87.13h899.44v28.13H405.36zm-.11-86.78h899.44v28.12H405.25zm-.26-86.37h899.44v28.12H404.99zm-.3-90.83h899.44v28.13H404.7zm-2.64-82.18h899.44v28.12H402.05zm8.65-86.24h899.45v28.13H410.7zm-9.64-77.34h899.44v28.12H401.06zM389.58 206L112.08 0h43.25l233.76 176.8z"/><path d="M401 41.73L325.32 0h76.02zM57.92 0h32.7v920.74h-32.7zm73.62 0h24.62v854.27h-24.62z"/><path d="M387.07-.05h24.62V639.7h-24.62zm-199.9-.06h22.11v803.7h-22.1zm50.34.08h14.55V760.3h-14.55zm35.56-.03h11.88v729.17h-11.88zm32.03.09h8.32v699.7h-8.32zm25.81-.04h6.1v678.16h-6.1zm18.91-.18h6.1v660.55h-6.1zm20.47.09h6.1v640.88h-6.1zm82.94 1.53h28.27v616.38h-28.26zm75.7.13h28.27v616.37h-28.27zM608 1.5h28.26v616.37H608zm75.97.08h28.26v616.37h-28.26zm74-.32h28.28v616.37h-28.27zm75.7.12h28.28v616.37h-28.27zm79.06-.05h28.27V617.7h-28.27zm75.97.08h28.27v616.37h-28.27zm81.99-.08h28.27V617.7h-28.27zm75.7.12h28.26v616.37h-28.26zm79.05-.05h28.27v616.37h-28.27zm79 638.03l402.24 415V960L1304.4 611.58zm-.04-87.48l402.28 274.38v-85.1L1304.8 523.65zm-.11-83.95l402.39 103.53v-84.16l-401.98-50.5zm.15-89.38l402.24-50.44v-83.42l-402.3 106.04zm-.24-91.12l402.48-205.56V0l-402.54 259.67zm5.96-168.13L1473.97 0h-52.25L1310.1 91.55zm6.93 86.64L1594.59 0h-43.24l-233.76 176.8zm-11.41-164.28L1381.35 0h-76.02z"/><path d="M1648.75 0h-32.7v920.74h32.7zm-73.62 0h-24.62v854.27h24.62zM1319.6-.05h-24.62V639.7h24.62zm199.89-.06h-22.1v803.7h22.1zm-50.33.08h-14.55V760.3h14.55zm-35.56-.03h-11.88v729.17h11.88zm-32.04.09h-8.32v699.7h8.32zm-25.8-.04h-6.1v678.16h6.1zm-18.92-.18h-6.1v660.55h6.1zm-20.47.09h-6.1v640.88h6.1z"/><g><use xlink:href="#O" transform="matrix(1.2 0 0 1.2 -149.4 -49.4)" width="100%" height="100%" filter="url(#P)"/><path id="O" d="M771.92 190.85H747v112.3h24.92c25.06-37.34 25.49-74.91 0-112.3zm-49.84 0H747v112.3h-24.92c-25.06-37.34-25.49-74.91 0-112.3z" display="inline" fill="#fa843f" fill-opacity="1" stroke="none" stroke-width="7.21" stroke-miterlimit="4" stroke-dasharray="none" stroke-opacity="1"/><use xlink:href="#Q" transform="matrix(1.2 0 0 1.2 -149.4 -49.4)" width="100%" height="100%" filter="url(#R)"/><path id="Q" d="M761.95 213.3H747v67.4h14.95c15.04-22.42 15.3-44.96 0-67.4zm-29.9 0H747v67.4h-14.95c-15.04-22.42-15.3-44.96 0-67.4z" display="inline" fill="#fbc684" fill-opacity="1" stroke="none" stroke-width="4.33" stroke-miterlimit="4" stroke-dasharray="none" stroke-opacity="1"/><use xlink:href="#S" transform="matrix(1.2 0 0 1.2 -139.6 -36.2)" width="100%" height="100%" filter="url(#T)"/><path id="S" d="M722.92 124.85H698v112.3h24.92c25.06-37.34 25.49-74.91 0-112.3zm-49.84 0H698v112.3h-24.92c-25.06-37.34-25.49-74.91 0-112.3z" display="inline" fill="#fa843f" fill-opacity="1" stroke="none" stroke-width="7.21" stroke-miterlimit="4" stroke-dasharray="none" stroke-opacity="1"/><use xlink:href="#U" transform="matrix(1.2 0 0 1.2 -139.6 -36.2)" width="100%" height="100%" filter="url(#V)"/><path id="U" d="M712.95 147.3H698v67.4h14.95c15.04-22.42 15.3-44.96 0-67.4zm-29.9 0H698v67.4h-14.95c-15.04-22.42-15.3-44.96 0-67.4z" display="inline" fill="#fbc684" fill-opacity="1" stroke="none" stroke-width="4.33" stroke-miterlimit="4" stroke-dasharray="none" stroke-opacity="1"/><g transform="translate(141.3 45.03) scale(.74665)"><use height="100%" width="100%" transform="matrix(1.2 0 0 1.2 -115.18 -43.61)" xlink:href="#W" filter="url(#X)"/><path d="M646.88 58.05h-71v320h71c71.41-106.41 72.63-213.46 0-320zm-142 0h71v320h-71c-71.4-106.41-72.62-213.46 0-320z" id="W" display="inline" fill="#fa843f" fill-opacity="1" stroke="none" stroke-width="20.56" stroke-miterlimit="4" stroke-dasharray="none" stroke-opacity="1"/><use height="100%" width="100%" transform="matrix(1.2 0 0 1.2 -115.18 -43.61)" xlink:href="#Y" filter="url(#Z)"/><path d="M618.48 122.05h-42.6v192h42.6c42.85-63.85 43.58-128.08 0-192zm-85.2 0h42.6v192h-42.6c-42.84-63.85-43.57-128.08 0-192z" id="Y" display="inline" fill="#fbc684" fill-opacity="1" stroke="none" stroke-width="12.34" stroke-miterlimit="4" stroke-dasharray="none" stroke-opacity="1"/></g><use xlink:href="#aa" transform="matrix(1.2 0 0 1.2 -43.31 -86.67)" width="100%" height="100%" filter="url(#ab)"/><path id="aa" d="M241.49 377.2h-24.92v112.3h24.92c25.06-37.34 25.48-74.9 0-112.3zm-49.84 0h24.92v112.3h-24.92c-25.06-37.34-25.49-74.9 0-112.3z" display="inline" fill="#fa843f" fill-opacity="1" stroke="none" stroke-width="7.21" stroke-miterlimit="4" stroke-dasharray="none" stroke-opacity="1"/><use xlink:href="#ac" transform="matrix(1.2 0 0 1.2 -43.31 -86.67)" width="100%" height="100%" filter="url(#ad)"/><path id="ac" d="M231.52 399.66h-14.95v67.38h14.95c15.03-22.4 15.3-44.94 0-67.38zm-29.9 0h14.95v67.38h-14.95c-15.04-22.4-15.3-44.94 0-67.38z" display="inline" fill="#fbc684" fill-opacity="1" stroke="none" stroke-width="4.33" stroke-miterlimit="4" stroke-dasharray="none" stroke-opacity="1"/><g transform="translate(69.9 12.47) scale(.35095)"><use height="100%" width="100%" transform="matrix(1.2 0 0 1.2 -115.18 -43.61)" xlink:href="#ae" filter="url(#af)"/><path d="M646.88 58.05h-71v320h71c71.41-106.41 72.63-213.46 0-320zm-142 0h71v320h-71c-71.4-106.41-72.62-213.46 0-320z" id="ae" display="inline" fill="#fa843f" fill-opacity="1" stroke="none" stroke-width="20.56" stroke-miterlimit="4" stroke-dasharray="none" stroke-opacity="1"/><use height="100%" width="100%" transform="matrix(1.2 0 0 1.2 -115.18 -43.61)" xlink:href="#ag" filter="url(#ah)"/><path d="M618.48 122.05h-42.6v192h42.6c42.85-63.85 43.58-128.08 0-192zm-85.2 0h42.6v192h-42.6c-42.84-63.85-43.57-128.08 0-192z" id="ag" display="inline" fill="#fbc684" fill-opacity="1" stroke="none" stroke-width="12.34" stroke-miterlimit="4" stroke-dasharray="none" stroke-opacity="1"/></g><use xlink:href="#ai" transform="matrix(1.2 0 0 1.2 -13.2 -70)" width="100%" height="100%" filter="url(#aj)"/><path id="ai" d="M90.92 293.85H66v112.3h24.92c25.06-37.34 25.49-74.91 0-112.3zm-49.84 0H66v112.3H41.08c-25.06-37.34-25.49-74.91 0-112.3z" display="inline" fill="#fa843f" fill-opacity="1" stroke="none" stroke-width="7.21" stroke-miterlimit="4" stroke-dasharray="none" stroke-opacity="1"/><use xlink:href="#ak" transform="matrix(1.2 0 0 1.2 -13.2 -70)" width="100%" height="100%" filter="url(#al)"/><path id="ak" d="M80.95 316.3H66v67.4h14.95c15.04-22.42 15.3-44.96 0-67.4zm-29.9 0H66v67.4H51.05c-15.04-22.42-15.3-44.96 0-67.4z" display="inline" fill="#fbc684" fill-opacity="1" stroke="none" stroke-width="4.33" stroke-miterlimit="4" stroke-dasharray="none" stroke-opacity="1"/><use xlink:href="#am" transform="matrix(1.2 0 0 1.2 -54.4 -17.8)" width="100%" height="100%" filter="url(#an)"/><path id="am" d="M296.92 32.85H272v112.3h24.92c25.06-37.34 25.49-74.91 0-112.3zm-49.84 0H272v112.3h-24.92c-25.06-37.34-25.49-74.91 0-112.3z" display="inline" fill="#fa843f" fill-opacity="1" stroke="none" stroke-width="7.21" stroke-miterlimit="4" stroke-dasharray="none" stroke-opacity="1"/><use xlink:href="#ao" transform="matrix(1.2 0 0 1.2 -54.4 -17.8)" width="100%" height="100%" filter="url(#ap)"/><path id="ao" d="M286.95 55.3H272v67.4h14.95c15.04-22.42 15.3-44.96 0-67.4zm-29.9 0H272v67.4h-14.95c-15.04-22.42-15.3-44.96 0-67.4z" display="inline" fill="#fbc684" fill-opacity="1" stroke="none" stroke-width="4.33" stroke-miterlimit="4" stroke-dasharray="none" stroke-opacity="1"/><use xlink:href="#aq" transform="matrix(1.2 0 0 1.2 -78.6 -50.8)" width="100%" height="100%" filter="url(#ar)"/><path id="aq" d="M417.92 197.85H393v112.3h24.92c25.06-37.34 25.49-74.91 0-112.3zm-49.84 0H393v112.3h-24.92c-25.06-37.34-25.49-74.91 0-112.3z" display="inline" fill="#fa843f" fill-opacity="1" stroke="none" stroke-width="7.21" stroke-miterlimit="4" stroke-dasharray="none" stroke-opacity="1"/><use xlink:href="#as" transform="matrix(1.2 0 0 1.2 -78.6 -50.8)" width="100%" height="100%" filter="url(#at)"/><path id="as" d="M407.95 220.3H393v67.4h14.95c15.04-22.42 15.3-44.96 0-67.4zm-29.9 0H393v67.4h-14.95c-15.04-22.42-15.3-44.96 0-67.4z" display="inline" fill="#fbc684" fill-opacity="1" stroke="none" stroke-width="4.33" stroke-miterlimit="4" stroke-dasharray="none" stroke-opacity="1"/><use xlink:href="#au" transform="matrix(1.2 0 0 1.2 -207.4 -34.2)" width="100%" height="100%" filter="url(#av)"/><path id="au" d="M1061.92 114.85H1037v112.3h24.92c25.06-37.34 25.49-74.91 0-112.3zm-49.84 0H1037v112.3h-24.92c-25.06-37.34-25.49-74.91 0-112.3z" display="inline" fill="#fa843f" fill-opacity="1" stroke="none" stroke-width="7.21" stroke-miterlimit="4" stroke-dasharray="none" stroke-opacity="1"/><use xlink:href="#aw" transform="matrix(1.2 0 0 1.2 -207.4 -34.2)" width="100%" height="100%" filter="url(#ax)"/><path id="aw" d="M1051.95 137.3H1037v67.4h14.95c15.04-22.42 15.3-44.96 0-67.4zm-29.9 0H1037v67.4h-14.95c-15.04-22.42-15.3-44.96 0-67.4z" display="inline" fill="#fbc684" fill-opacity="1" stroke="none" stroke-width="4.33" stroke-miterlimit="4" stroke-dasharray="none" stroke-opacity="1"/><use xlink:href="#ay" transform="matrix(1.2 0 0 1.2 -240.6 -90)" width="100%" height="100%" filter="url(#az)"/><path id="ay" d="M1227.92 393.85H1203v112.3h24.92c25.06-37.34 25.49-74.91 0-112.3zm-49.84 0H1203v112.3h-24.92c-25.06-37.34-25.49-74.91 0-112.3z" display="inline" fill="#fa843f" fill-opacity="1" stroke="none" stroke-width="7.21" stroke-miterlimit="4" stroke-dasharray="none" stroke-opacity="1"/><use xlink:href="#aA" transform="matrix(1.2 0 0 1.2 -240.6 -90)" width="100%" height="100%" filter="url(#aB)"/><path id="aA" d="M1217.95 416.3H1203v67.4h14.95c15.04-22.42 15.3-44.96 0-67.4zm-29.9 0H1203v67.4h-14.95c-15.04-22.42-15.3-44.96 0-67.4z" display="inline" fill="#fbc684" fill-opacity="1" stroke="none" stroke-width="4.33" stroke-miterlimit="4" stroke-dasharray="none" stroke-opacity="1"/><use xlink:href="#aC" transform="matrix(1.2 0 0 1.2 -279 -45.4)" width="100%" height="100%" filter="url(#aD)"/><path id="aC" d="M1419.92 170.85H1395v112.3h24.92c25.06-37.34 25.49-74.91 0-112.3zm-49.84 0H1395v112.3h-24.92c-25.06-37.34-25.49-74.91 0-112.3z" display="inline" fill="#fa843f" fill-opacity="1" stroke="none" stroke-width="7.21" stroke-miterlimit="4" stroke-dasharray="none" stroke-opacity="1"/><use xlink:href="#aE" transform="matrix(1.2 0 0 1.2 -279 -45.4)" width="100%" height="100%" filter="url(#aF)"/><path id="aE" d="M1409.95 193.3H1395v67.4h14.95c15.04-22.42 15.3-44.96 0-67.4zm-29.9 0H1395v67.4h-14.95c-15.04-22.42-15.3-44.96 0-67.4z" display="inline" fill="#fbc684" fill-opacity="1" stroke="none" stroke-width="4.33" stroke-miterlimit="4" stroke-dasharray="none" stroke-opacity="1"/><path d="M348.5 666h96v240h-96z" transform="matrix(.75658 0 0 .66282 -21.23 285.1)" fill="#66b96c" filter="url(#aG)"/><path d="M372.5 726h48v120h-48z" transform="matrix(.76721 0 0 .67699 -25.45 262.3)" fill="#bbfba7" filter="url(#aH)"/><path d="M348.5 666h96v240h-96z" transform="matrix(.98447 0 0 .86248 808.78 152.84)" fill="#66b96c" filter="url(#aI)"/><path d="M372.5 726h48v120h-48z" transform="matrix(.9983 0 0 .88091 803.3 123.17)" fill="#bbfba7" filter="url(#aJ)"/><path d="M348.5 666h96v240h-96z" transform="matrix(.75767 0 0 .66378 257.3 169.84)" fill="#73d7d4" filter="url(#aK)"/><path d="M372.5 726h48v120h-48z" transform="matrix(.76832 0 0 .67797 253.07 147)" fill="#c3fbe2" filter="url(#aL)"/><path d="M348.5 666h96v240h-96z" transform="matrix(.53908 0 0 .47227 914.93 233.12)" fill="#73d7d4" filter="url(#aM)"/><path d="M372.5 726h48v120h-48z" transform="matrix(.54665 0 0 .48237 911.93 216.87)" fill="#c3fbe2" filter="url(#aN)"/><path transform="matrix(1.08078 0 0 .88929 277.08 26.18)" fill="#2c394b" filter="url(#aO)" d="M519.72 769.43h70.36V891.7h-70.36z"/><path d="M348.5 666h96v240h-96z" transform="matrix(.75767 0 0 .66378 575.52 89.65)" fill="#73d7d4" filter="url(#aP)"/><path d="M372.5 726h48v120h-48z" transform="matrix(.76832 0 0 .67797 571.3 66.82)" fill="#c3fbe2" filter="url(#aQ)"/></g></svg>