<svg xmlns="http://www.w3.org/2000/svg" xmlns:xlink="http://www.w3.org/1999/xlink" width="1706.667" height="960"><defs><filter id="ah" color-interpolation-filters="sRGB"><feGaussianBlur stdDeviation="5 5" result="blur"/></filter><filter id="aj" color-interpolation-filters="sRGB"><feGaussianBlur stdDeviation="5 5" result="blur"/></filter><filter id="al" color-interpolation-filters="sRGB"><feGaussianBlur stdDeviation="5 5" result="blur"/></filter><filter id="an" color-interpolation-filters="sRGB"><feGaussianBlur stdDeviation="5 5" result="blur"/></filter><filter id="ap" color-interpolation-filters="sRGB"><feGaussianBlur stdDeviation="5 5" result="blur"/></filter><filter id="ar" color-interpolation-filters="sRGB"><feGaussianBlur stdDeviation="5 5" result="blur"/></filter><filter id="at" color-interpolation-filters="sRGB"><feGaussianBlur stdDeviation="5 5" result="blur"/></filter><filter id="av" color-interpolation-filters="sRGB"><feGaussianBlur stdDeviation="5 5" result="blur"/></filter><filter id="ax" color-interpolation-filters="sRGB"><feGaussianBlur stdDeviation="5 5" result="blur"/></filter><filter id="az" color-interpolation-filters="sRGB"><feGaussianBlur stdDeviation="5 5" result="blur"/></filter><filter id="ad" color-interpolation-filters="sRGB"><feGaussianBlur stdDeviation="5 5" result="blur"/></filter><filter id="af" color-interpolation-filters="sRGB"><feGaussianBlur stdDeviation="5 5" result="blur"/></filter><filter id="Z" color-interpolation-filters="sRGB"><feGaussianBlur stdDeviation="5 5" result="blur"/></filter><filter id="ab" color-interpolation-filters="sRGB"><feGaussianBlur stdDeviation="5 5" result="blur"/></filter><filter id="g" color-interpolation-filters="sRGB"><feGaussianBlur stdDeviation="5 5" result="blur"/></filter><filter id="h" color-interpolation-filters="sRGB"><feGaussianBlur stdDeviation="5 5" result="blur"/></filter><filter id="i" color-interpolation-filters="sRGB"><feGaussianBlur stdDeviation="5 5" result="blur"/></filter><filter id="j" color-interpolation-filters="sRGB"><feGaussianBlur stdDeviation="5 5" result="blur"/></filter><filter id="k" color-interpolation-filters="sRGB"><feGaussianBlur stdDeviation="5 5" result="blur"/></filter><filter id="l" color-interpolation-filters="sRGB"><feGaussianBlur stdDeviation="5 5" result="blur"/></filter><filter id="m" color-interpolation-filters="sRGB"><feGaussianBlur stdDeviation="5 5" result="blur"/></filter><filter id="n" color-interpolation-filters="sRGB"><feGaussianBlur stdDeviation="5 5" result="blur"/></filter><filter id="o" color-interpolation-filters="sRGB"><feGaussianBlur stdDeviation="5 5" result="blur"/></filter><filter id="p" color-interpolation-filters="sRGB"><feGaussianBlur stdDeviation="5 5" result="blur"/></filter><filter id="q" color-interpolation-filters="sRGB"><feGaussianBlur stdDeviation="5 5" result="blur"/></filter><filter id="r" color-interpolation-filters="sRGB"><feGaussianBlur stdDeviation="5 5" result="blur"/></filter><filter id="s" color-interpolation-filters="sRGB"><feGaussianBlur stdDeviation="5 5" result="blur"/></filter><filter id="t" color-interpolation-filters="sRGB"><feGaussianBlur stdDeviation="5 5" result="blur"/></filter><filter id="u" color-interpolation-filters="sRGB"><feGaussianBlur stdDeviation="5 5" result="blur"/></filter><filter id="aA" color-interpolation-filters="sRGB"><feGaussianBlur stdDeviation="5 10" result="blur"/></filter><filter id="aB" color-interpolation-filters="sRGB"><feGaussianBlur stdDeviation="5 10" result="blur"/></filter><filter id="aD" color-interpolation-filters="sRGB"><feGaussianBlur stdDeviation="5 10" result="blur"/></filter><filter id="aC" color-interpolation-filters="sRGB"><feGaussianBlur stdDeviation="5 10" result="blur"/></filter><filter id="w" color-interpolation-filters="sRGB"><feGaussianBlur stdDeviation="5 10" result="blur"/></filter><filter id="v" color-interpolation-filters="sRGB"><feGaussianBlur stdDeviation="5 10" result="blur"/></filter><filter id="x" color-interpolation-filters="sRGB"><feGaussianBlur stdDeviation="5 10" result="blur"/></filter><filter id="y" color-interpolation-filters="sRGB"><feGaussianBlur stdDeviation="5 10" result="blur"/></filter><filter id="z" color-interpolation-filters="sRGB"><feGaussianBlur stdDeviation="5 10" result="blur"/></filter><filter id="A" color-interpolation-filters="sRGB"><feGaussianBlur stdDeviation="5 10" result="blur"/></filter><filter id="B" color-interpolation-filters="sRGB"><feGaussianBlur stdDeviation="5 10" result="blur"/></filter><filter id="C" color-interpolation-filters="sRGB"><feGaussianBlur stdDeviation="5 10" result="blur"/></filter><filter id="D" color-interpolation-filters="sRGB"><feGaussianBlur stdDeviation="5 10" result="blur"/></filter><filter id="E" color-interpolation-filters="sRGB"><feGaussianBlur stdDeviation="5 10" result="blur"/></filter><filter id="F" color-interpolation-filters="sRGB"><feGaussianBlur stdDeviation="5 10" result="blur"/></filter><filter id="G" color-interpolation-filters="sRGB"><feGaussianBlur stdDeviation="5 10" result="blur"/></filter><filter id="aE" color-interpolation-filters="sRGB"><feGaussianBlur stdDeviation="5 10" result="blur"/></filter><filter id="aF" color-interpolation-filters="sRGB"><feGaussianBlur stdDeviation="5 10" result="blur"/></filter><filter id="aG" color-interpolation-filters="sRGB"><feGaussianBlur stdDeviation="5 10" result="blur"/></filter><filter id="aH" color-interpolation-filters="sRGB"><feGaussianBlur stdDeviation="5 10" result="blur"/></filter><filter id="I" color-interpolation-filters="sRGB"><feGaussianBlur stdDeviation="5 10" result="blur"/></filter><filter id="J" color-interpolation-filters="sRGB"><feGaussianBlur stdDeviation="5 10" result="blur"/></filter><filter id="K" color-interpolation-filters="sRGB"><feGaussianBlur stdDeviation="5 10" result="blur"/></filter><filter id="L" color-interpolation-filters="sRGB"><feGaussianBlur stdDeviation="5 10" result="blur"/></filter><filter id="M" color-interpolation-filters="sRGB"><feGaussianBlur stdDeviation="5 10" result="blur"/></filter><filter id="N" color-interpolation-filters="sRGB"><feGaussianBlur stdDeviation="5 10" result="blur"/></filter><filter id="O" color-interpolation-filters="sRGB"><feGaussianBlur stdDeviation="5 10" result="blur"/></filter><filter id="P" color-interpolation-filters="sRGB"><feGaussianBlur stdDeviation="5 10" result="blur"/></filter><filter id="H" color-interpolation-filters="sRGB"><feGaussianBlur stdDeviation="5 10" result="blur"/></filter><filter id="Q" color-interpolation-filters="sRGB"><feGaussianBlur stdDeviation="5 10" result="blur"/></filter><filter id="R" color-interpolation-filters="sRGB"><feGaussianBlur stdDeviation="5 10" result="blur"/></filter><filter id="S" color-interpolation-filters="sRGB"><feGaussianBlur stdDeviation="5 10" result="blur"/></filter><filter id="T" color-interpolation-filters="sRGB"><feGaussianBlur stdDeviation="5 10" result="blur"/></filter><filter id="aI" color-interpolation-filters="sRGB"><feGaussianBlur stdDeviation="5 10" result="blur"/></filter><filter id="aJ" color-interpolation-filters="sRGB"><feGaussianBlur stdDeviation="5 10" result="blur"/></filter><filter id="aK" color-interpolation-filters="sRGB"><feGaussianBlur stdDeviation="5 10" result="blur"/></filter><linearGradient id="e"><stop offset="0"/><stop stop-color="#043936" offset=".264"/><stop stop-opacity=".873" offset="1"/></linearGradient><linearGradient id="d"><stop stop-color="#010f0e" offset="0"/><stop stop-color="#043936" offset=".243"/><stop stop-opacity=".873" offset="1"/></linearGradient><linearGradient id="c"><stop offset="0"/><stop offset=".279" stop-color="#064c47"/><stop offset="1" stop-opacity=".941"/></linearGradient><linearGradient id="b"><stop offset="0"/><stop offset=".314" stop-color="#043936"/><stop offset="1" stop-opacity=".873"/></linearGradient><linearGradient id="a"><stop offset="0" stop-color="#00786e" stop-opacity=".506"/><stop offset="1" stop-opacity="0"/></linearGradient><linearGradient xlink:href="#a" id="f" x1="388.55" y1="588.091" x2="633.078" y2="965.034" gradientUnits="userSpaceOnUse"/><linearGradient xlink:href="#b" id="U" x1="156.607" y1="325.225" x2="925.566" y2="374.401" gradientUnits="userSpaceOnUse"/><linearGradient xlink:href="#c" id="V" gradientUnits="userSpaceOnUse" x1="195.007" y1="425.029" x2="925.566" y2="374.401"/><linearGradient xlink:href="#d" id="X" gradientUnits="userSpaceOnUse" x1="233.144" y1="326.115" x2="925.566" y2="374.401"/><linearGradient xlink:href="#e" id="W" gradientUnits="userSpaceOnUse" x1="201.105" y1="331.455" x2="925.566" y2="374.401"/></defs><path d="M0 1054.424l401.172-415.518h899.442l406.053 415.517z" fill="url(#f)" stroke="#000"/><path d="M121.47 147.538a20 20 0 01-20.003 19.996 20 20 0 01-19.997-20.002 20 20 0 0120.001-19.998 20 20 0 0119.999 20.001" transform="translate(-23.966 -38.216) scale(1.30936)" fill="#a93e27" filter="url(#g)"/><path d="M121.47 147.538a20 20 0 01-20.003 19.996 20 20 0 01-19.997-20.002 20 20 0 0120.001-19.998 20 20 0 0119.999 20.001" transform="translate(-43.411 68.203) scale(1.30936)" fill="#a93e27" filter="url(#h)"/><path d="M121.47 147.538a20 20 0 01-20.003 19.996 20 20 0 01-19.997-20.002 20 20 0 0120.001-19.998 20 20 0 0119.999 20.001" transform="translate(-93.976 230.959) scale(1.30936)" fill="#a93e27" filter="url(#i)"/><path d="M121.47 147.538a20 20 0 01-20.003 19.996 20 20 0 01-19.997-20.002 20 20 0 0120.001-19.998 20 20 0 0119.999 20.001" transform="translate(276.117 -75.041) scale(1.30936)" fill="#a93e27" filter="url(#j)"/><path d="M121.47 147.538a20 20 0 01-20.003 19.996 20 20 0 01-19.997-20.002 20 20 0 0120.001-19.998 20 20 0 0119.999 20.001" transform="translate(871.403 -113.811) scale(1.30936)" fill="#a93e27" filter="url(#k)"/><path d="M121.47 147.538a20 20 0 01-20.003 19.996 20 20 0 01-19.997-20.002 20 20 0 0120.001-19.998 20 20 0 0119.999 20.001" transform="translate(958.13 -91.843) scale(1.30936)" fill="#a93e27" filter="url(#l)"/><path d="M121.47 147.538a20 20 0 01-20.003 19.996 20 20 0 01-19.997-20.002 20 20 0 0120.001-19.998 20 20 0 0119.999 20.001" transform="translate(1031.372 57.896) scale(1.30936)" fill="#a93e27" filter="url(#m)"/><path d="M121.47 147.538a20 20 0 01-20.003 19.996 20 20 0 01-19.997-20.002 20 20 0 0120.001-19.998 20 20 0 0119.999 20.001" transform="translate(952.14 129.825) scale(1.30936)" fill="#a93e27" filter="url(#n)"/><path d="M121.47 147.538a20 20 0 01-20.003 19.996 20 20 0 01-19.997-20.002 20 20 0 0120.001-19.998 20 20 0 0119.999 20.001" transform="translate(1073.029 -29.55) scale(1.30936)" fill="#a93e27" filter="url(#o)"/><path d="M121.47 147.538a20 20 0 01-20.003 19.996 20 20 0 01-19.997-20.002 20 20 0 0120.001-19.998 20 20 0 0119.999 20.001" transform="translate(1380.14 -71.675) scale(1.30936)" fill="#a93e27" filter="url(#p)"/><path d="M121.47 147.538a20 20 0 01-20.003 19.996 20 20 0 01-19.997-20.002 20 20 0 0120.001-19.998 20 20 0 0119.999 20.001" transform="translate(1458.14 -7.175) scale(1.30936)" fill="#a93e27" filter="url(#q)"/><path d="M121.47 147.538a20 20 0 01-20.003 19.996 20 20 0 01-19.997-20.002 20 20 0 0120.001-19.998 20 20 0 0119.999 20.001" transform="translate(1368.14 50.825) scale(1.30936)" fill="#a93e27" filter="url(#r)"/><path d="M121.47 147.538a20 20 0 01-20.003 19.996 20 20 0 01-19.997-20.002 20 20 0 0120.001-19.998 20 20 0 0119.999 20.001" transform="translate(1450.14 218.825) scale(1.30936)" fill="#a93e27" filter="url(#s)"/><path d="M121.47 147.538a20 20 0 01-20.003 19.996 20 20 0 01-19.997-20.002 20 20 0 0120.001-19.998 20 20 0 0119.999 20.001" transform="translate(220.693 188.411) scale(1.30936)" fill="#a93e27" filter="url(#t)"/><path d="M121.47 147.538a20 20 0 01-20.003 19.996 20 20 0 01-19.997-20.002 20 20 0 0120.001-19.998 20 20 0 0119.999 20.001" transform="translate(691.626 -39.277) scale(1.30936)" fill="#a93e27" filter="url(#u)"/><path d="M348.5 666h96v240h-96z" transform="matrix(.75123 0 0 .65813 -165.633 174.987)" fill="#66b96c" filter="url(#v)"/><path d="M372.5 726h48v120h-48z" transform="matrix(.76178 0 0 .6722 -169.819 152.346)" fill="#bbfba7" filter="url(#w)"/><path d="M348.5 666h96v240h-96z" transform="matrix(.43819 0 0 .38388 153.296 236.23)" fill="#66b96c" filter="url(#x)"/><path d="M372.5 726h48v120h-48z" transform="matrix(.44434 0 0 .39209 150.855 223.024)" fill="#bbfba7" filter="url(#y)"/><path d="M348.5 666h96v240h-96z" transform="matrix(.43819 0 0 .38388 338.205 238.246)" fill="#66b96c" filter="url(#z)"/><path d="M372.5 726h48v120h-48z" transform="matrix(.44434 0 0 .39209 335.763 225.04)" fill="#bbfba7" filter="url(#A)"/><path d="M348.5 666h96v240h-96z" transform="matrix(.3485 0 0 .30532 890.442 279.494)" fill="#66b96c" filter="url(#B)"/><path d="M372.5 726h48v120h-48z" transform="matrix(.3534 0 0 .31184 888.5 268.99)" fill="#bbfba7" filter="url(#C)"/><path d="M348.5 666h96v240h-96z" transform="matrix(.40175 0 0 .35197 1108.08 253.787)" fill="#66b96c" filter="url(#D)"/><path d="M372.5 726h48v120h-48z" transform="matrix(.4074 0 0 .35949 1105.84 241.679)" fill="#bbfba7" filter="url(#E)"/><path d="M348.5 666h96v240h-96z" transform="matrix(.52226 0 0 .45754 1293.981 250.001)" fill="#66b96c" filter="url(#F)"/><path d="M372.5 726h48v120h-48z" transform="matrix(.5296 0 0 .46732 1291.071 234.26)" fill="#bbfba7" filter="url(#G)"/><path transform="matrix(.5794 0 0 .29852 189.998 367.306)" fill="#253326" filter="url(#H)" d="M519.724 769.435h70.357v122.267h-70.357z"/><path d="M348.5 666h96v240h-96z" transform="matrix(.42622 0 0 .3734 504.17 240.734)" fill="#73d7d4" filter="url(#I)"/><path d="M372.5 726h48v120h-48z" transform="matrix(.4322 0 0 .38138 501.795 227.888)" fill="#c3fbe2" filter="url(#J)"/><path transform="matrix(1.08078 0 0 .88929 -41.15 106.36)" fill="#2c394b" filter="url(#K)" d="M519.724 769.435h70.357v122.267h-70.357z"/><path transform="matrix(.81747 0 0 .81532 676.133 48.568)" fill="#31425c" filter="url(#L)" d="M519.724 769.435h70.357v122.267h-70.357z"/><path transform="matrix(1.09625 0 0 .90086 -331.896 210.767)" fill="#253326" filter="url(#M)" d="M519.724 769.435h70.357v122.267h-70.357z"/><path transform="matrix(1.2892 0 0 .80383 484.55 339.548)" fill="#253326" filter="url(#N)" d="M519.724 769.435h70.357v122.267h-70.357z"/><path transform="matrix(1.13805 0 0 .6105 -501.4 310.946)" fill="#253326" filter="url(#O)" d="M519.724 769.435h70.357v122.267h-70.357z"/><path transform="matrix(.59523 0 0 .33106 -4.156 328.317)" fill="#253326" filter="url(#P)" d="M519.724 769.435h70.357v122.267h-70.357z"/><path transform="matrix(.64353 0 0 .30658 667.646 328.467)" fill="#253326" filter="url(#Q)" d="M519.724 769.435h70.357v122.267h-70.357z"/><path transform="matrix(.7177 0 0 .34207 865.69 316.699)" fill="#253326" filter="url(#R)" d="M519.724 769.435h70.357v122.267h-70.357z"/><path transform="matrix(.67118 0 0 .59477 1125.57 212.467)" fill="#253326" filter="url(#S)" d="M519.724 769.435h70.357v122.267h-70.357z"/><path transform="matrix(.51823 0 0 .32705 381.436 336.366)" fill="#31425c" filter="url(#T)" d="M519.724 769.435h70.357v122.267h-70.357z"/><g fill="url(#U)"><path d="M401 41.733L325.317 0h76.02zM57.919.003H90.62v920.738H57.919zm73.618-.007h24.619v854.27h-24.619z"/><path d="M387.07-.054h24.619v639.763H387.07zM187.179-.106h22.102v803.695h-22.102zm50.332.08h14.55v760.314h-14.55zm35.554-.033h11.88v729.165h-11.88zm32.038.085h8.321v699.71h-8.321zm25.809-.039h6.096v678.168h-6.096zm18.912-.177h6.096v660.546h-6.096zm20.469.085h6.096v640.881h-6.096zm82.942 1.539h28.268v616.371h-28.268zm75.699.122h28.268v616.371h-28.268zm79.051-.053h28.268v616.371h-28.268zm75.972.077h28.268v616.371h-28.268zm74.011-.319h28.268v616.371h-28.268zm75.699.122h28.268v616.371h-28.268zm79.051-.053h28.268v616.371h-28.268zm75.972.077h28.268v616.371H988.69zm81.988-.078h28.268V617.7h-28.268zm75.699.122h28.268v616.371h-28.268zm79.051-.053h28.268v616.371h-28.268zm79.007 638.033l402.232 414.992V960l-402.265-348.422zm-.048-87.483l402.28 274.378v-85.092L1304.799 523.65zm-.109-83.951l402.389 103.528v-84.154l-401.977-50.504zm.152-89.374l402.237-50.443v-83.418l-402.298 106.034zm-.237-91.123l402.474-205.565V0l-402.534 259.674zm5.955-168.125L1473.967 0h-52.246l-111.635 91.549zm6.937 86.632L1594.588 0h-43.248l-233.763 176.8zm-11.418-164.274L1381.349 0h-76.019z" fill="url(#V)"/><path d="M402.232 639.431L0 1054.424V960l402.265-348.422zm.048-87.483L0 826.326v-85.092L401.868 523.65zm.108-83.951L0 571.525v-84.154l401.977-50.504zm-.15-89.374L0 328.18v-83.418l402.298 106.034zm.236-91.123L0 81.936V0l402.534 259.674zm-5.954-168.125L232.7 0h52.245L396.58 91.549zM1648.748.003h-32.701v920.738h32.701zm-73.619-.007h-24.619v854.27h24.619zm-255.532-.05h-24.619v639.763h24.619zm199.89-.052h-22.102v803.695h22.102zm-50.331.08h-14.55v760.314h14.55zm-35.554-.033h-11.88v729.165h11.88zm-32.039.086h-8.321v699.71h8.321zm-25.809-.04h-6.096v678.168h6.096zm-18.912-.177h-6.096v660.546h6.096zm-20.469.085h-6.096v640.881h6.096z" fill="url(#W)"/><path d="M402.265 611.578l898.349-.797v28.125l-898.813 5.35zm-.397-87.928h902.93v28.125l-902.518.173zm.109-86.783l902.713-.001v28.125l-902.302 3.006zm.321-86.071l902.131-.298v28.125H402.238zm2.392-91.122h899.442v28.125H404.69zm-15.6-82.874l912.4.687v28.125l-911.908.395zm7.49-85.251l913.567-.299v28.125H396.52zM387.07-.054l913.432 13.96v28.125l-914.126-7.565zm2.512 206.061L112.079 0h43.247L389.09 176.8z" fill="url(#X)"/></g><use height="100%" width="100%" transform="matrix(1.2 0 0 1.2 -149.4 -49.4)" xlink:href="#Y" filter="url(#Z)"/><path stroke-miterlimit="4" display="inline" d="M771.918 190.848H747v112.304h24.918c25.06-37.346 25.488-74.914 0-112.304zm-49.836 0H747v112.304h-24.918c-25.06-37.346-25.488-74.914 0-112.304z" id="Y" fill="#fa843f" fill-opacity="1" stroke="none" stroke-width="7.215" stroke-dasharray="none" stroke-opacity="1"/><use height="100%" width="100%" transform="matrix(1.2 0 0 1.2 -149.4 -49.4)" xlink:href="#aa" filter="url(#ab)"/><path stroke-miterlimit="4" display="inline" d="M761.95 213.309H747v67.382h14.95c15.037-22.407 15.294-44.948 0-67.382zm-29.9 0H747v67.382h-14.95c-15.037-22.407-15.294-44.948 0-67.382z" id="aa" fill="#fbc684" fill-opacity="1" stroke="none" stroke-width="4.329" stroke-dasharray="none" stroke-opacity="1"/><use height="100%" width="100%" transform="matrix(1.2 0 0 1.2 -139.6 -36.2)" xlink:href="#ac" filter="url(#ad)"/><path stroke-miterlimit="4" display="inline" d="M722.918 124.848H698v112.304h24.918c25.06-37.346 25.488-74.914 0-112.304zm-49.836 0H698v112.304h-24.918c-25.06-37.346-25.488-74.914 0-112.304z" id="ac" fill="#fa843f" fill-opacity="1" stroke="none" stroke-width="7.215" stroke-dasharray="none" stroke-opacity="1"/><use height="100%" width="100%" transform="matrix(1.2 0 0 1.2 -139.6 -36.2)" xlink:href="#ae" filter="url(#af)"/><path stroke-miterlimit="4" display="inline" d="M712.95 147.309H698v67.382h14.95c15.037-22.407 15.294-44.948 0-67.382zm-29.9 0H698v67.382h-14.95c-15.037-22.407-15.294-44.948 0-67.382z" id="ae" fill="#fbc684" fill-opacity="1" stroke="none" stroke-width="4.329" stroke-dasharray="none" stroke-opacity="1"/><use height="100%" width="100%" transform="matrix(1.2 0 0 1.2 -114.258 -41.567)" xlink:href="#ag" filter="url(#ah)"/><path d="M624.3 88.37h-53.013v238.928h53.012c53.316-79.453 54.227-159.38 0-238.928zm-106.026 0h53.012v238.928h-53.012c-53.316-79.453-54.226-159.38 0-238.928z" id="ag" display="inline" stroke-miterlimit="4" fill="#fa843f" fill-opacity="1" stroke="none" stroke-width="15.35" stroke-dasharray="none" stroke-opacity="1"/><use height="100%" width="100%" transform="matrix(1.2 0 0 1.2 -43.313 -86.67)" xlink:href="#ai" filter="url(#aj)"/><path stroke-miterlimit="4" display="inline" d="M241.485 377.202h-24.918v112.304h24.918c25.06-37.346 25.488-74.914 0-112.304zm-49.835 0h24.917v112.304H191.65c-25.06-37.346-25.489-74.914 0-112.304z" id="ai" fill="#fa843f" fill-opacity="1" stroke="none" stroke-width="7.215" stroke-dasharray="none" stroke-opacity="1"/><g transform="translate(69.894 12.475) scale(.35095)"><use xlink:href="#ak" transform="matrix(1.2 0 0 1.2 -115.177 -43.61)" width="100%" height="100%" filter="url(#al)"/><path stroke-miterlimit="4" display="inline" id="ak" d="M646.884 58.051h-71.001v320h71c71.407-106.413 72.627-213.46 0-320zm-142.002 0h71v320h-71c-71.407-106.413-72.626-213.46 0-320z" fill="#fa843f" fill-opacity="1" stroke="none" stroke-width="20.559" stroke-dasharray="none" stroke-opacity="1"/><use xlink:href="#am" transform="matrix(1.2 0 0 1.2 -115.177 -43.61)" width="100%" height="100%" filter="url(#an)"/><path stroke-miterlimit="4" display="inline" id="am" d="M618.484 122.051h-42.6v192h42.6c42.844-63.848 43.576-128.076 0-192zm-85.201 0h42.6v192h-42.6c-42.844-63.848-43.576-128.076 0-192z" fill="#fbc684" fill-opacity="1" stroke="none" stroke-width="12.335" stroke-dasharray="none" stroke-opacity="1"/></g><use height="100%" width="100%" transform="matrix(1.2 0 0 1.2 -13.2 -70)" xlink:href="#ao" filter="url(#ap)"/><path stroke-miterlimit="4" display="inline" d="M90.918 293.848H66v112.304h24.918c25.06-37.346 25.488-74.914 0-112.304zm-49.836 0H66v112.304H41.082c-25.06-37.346-25.488-74.914 0-112.304z" id="ao" fill="#fa843f" fill-opacity="1" stroke="none" stroke-width="7.215" stroke-dasharray="none" stroke-opacity="1"/><use height="100%" width="100%" transform="matrix(1.2 0 0 1.2 -54.4 -17.8)" xlink:href="#aq" filter="url(#ar)"/><path stroke-miterlimit="4" display="inline" d="M296.918 32.848H272v112.304h24.918c25.06-37.346 25.488-74.914 0-112.304zm-49.836 0H272v112.304h-24.918c-25.06-37.346-25.488-74.914 0-112.304z" id="aq" fill="#fa843f" fill-opacity="1" stroke="none" stroke-width="7.215" stroke-dasharray="none" stroke-opacity="1"/><use height="100%" width="100%" transform="matrix(1.2 0 0 1.2 -78.6 -50.8)" xlink:href="#as" filter="url(#at)"/><path stroke-miterlimit="4" display="inline" d="M417.918 197.848H393v112.304h24.918c25.06-37.346 25.488-74.914 0-112.304zm-49.836 0H393v112.304h-24.918c-25.06-37.346-25.488-74.914 0-112.304z" id="as" fill="#fa843f" fill-opacity="1" stroke="none" stroke-width="7.215" stroke-dasharray="none" stroke-opacity="1"/><use height="100%" width="100%" transform="matrix(1.2 0 0 1.2 -207.4 -34.2)" xlink:href="#au" filter="url(#av)"/><path stroke-miterlimit="4" display="inline" d="M1061.918 114.848H1037v112.304h24.918c25.06-37.346 25.488-74.914 0-112.304zm-49.836 0H1037v112.304h-24.918c-25.06-37.346-25.488-74.914 0-112.304z" id="au" fill="#fa843f" fill-opacity="1" stroke="none" stroke-width="7.215" stroke-dasharray="none" stroke-opacity="1"/><use height="100%" width="100%" transform="matrix(1.2 0 0 1.2 -240.6 -90)" xlink:href="#aw" filter="url(#ax)"/><path stroke-miterlimit="4" display="inline" d="M1227.918 393.848H1203v112.304h24.918c25.06-37.346 25.488-74.914 0-112.304zm-49.836 0H1203v112.304h-24.918c-25.06-37.346-25.488-74.914 0-112.304z" id="aw" fill="#fa843f" fill-opacity="1" stroke="none" stroke-width="7.215" stroke-dasharray="none" stroke-opacity="1"/><use height="100%" width="100%" transform="matrix(1.2 0 0 1.2 -279 -45.4)" xlink:href="#ay" filter="url(#az)"/><path stroke-miterlimit="4" display="inline" d="M1419.918 170.848H1395v112.304h24.918c25.06-37.346 25.488-74.914 0-112.304zm-49.836 0H1395v112.304h-24.918c-25.06-37.346-25.488-74.914 0-112.304z" id="ay" fill="#fa843f" fill-opacity="1" stroke="none" stroke-width="7.215" stroke-dasharray="none" stroke-opacity="1"/><path transform="matrix(.75658 0 0 .66282 -21.234 285.104)" d="M348.5 666h96v240h-96z" fill="#66b96c" filter="url(#aA)"/><path transform="matrix(.76721 0 0 .67699 -25.45 262.302)" d="M372.5 726h48v120h-48z" fill="#bbfba7" filter="url(#aB)"/><path transform="matrix(.98447 0 0 .86248 808.783 152.845)" d="M348.5 666h96v240h-96z" fill="#66b96c" filter="url(#aC)"/><path transform="matrix(.9983 0 0 .88091 803.297 123.173)" d="M372.5 726h48v120h-48z" fill="#bbfba7" filter="url(#aD)"/><path transform="matrix(.75767 0 0 .66378 257.292 169.836)" d="M348.5 666h96v240h-96z" fill="#73d7d4" filter="url(#aE)"/><path transform="matrix(.76832 0 0 .67797 253.07 147)" d="M372.5 726h48v120h-48z" fill="#c3fbe2" filter="url(#aF)"/><path transform="matrix(.53908 0 0 .47227 914.935 233.12)" d="M348.5 666h96v240h-96z" fill="#73d7d4" filter="url(#aG)"/><path transform="matrix(.54665 0 0 .48237 911.932 216.872)" d="M372.5 726h48v120h-48z" fill="#c3fbe2" filter="url(#aH)"/><path d="M519.724 769.435h70.357v122.267h-70.357z" transform="matrix(1.08078 0 0 .88929 277.083 26.178)" fill="#2c394b" filter="url(#aI)"/><path transform="matrix(.75767 0 0 .66378 575.524 89.654)" d="M348.5 666h96v240h-96z" fill="#73d7d4" filter="url(#aJ)"/><path transform="matrix(.76832 0 0 .67797 571.303 66.818)" d="M372.5 726h48v120h-48z" fill="#c3fbe2" filter="url(#aK)"/></svg>