<svg xmlns="http://www.w3.org/2000/svg" width="247.309" height="251.193">
  <path d="M96.49 233.155c1.671-1.086 3.419-2.109 5.166-3.131 1.072-.673 1.911-1.536 2.16-2.626.875-3.424 2.108-6.812 2.125-10.295.009-.64.235-1.23.462-1.821a511.482 511.482 0 013.295-11.404c.163-.513.39-1.103.771-1.567 1.244-1.826 2.564-3.588 3.807-5.414.318-.386.713-.709 1.044-.954 2.714-2.04 5.351-4.144 8.297-5.994 2.806-1.836 5.92-3.418 8.957-5.063 1.62-.868 3.332-1.532 5.162-1.71 1.548-.15 3.155-1.16 4.767-1.387 5.884-.857 11.736-2.776 17.717-2.648.78-.005 1.661-.446 2.506-.528 2.647-.542 5.294-1.083 7.927-1.766 3.478-.764 7.02-1.606 10.42-2.435.767-.145 1.507-.572 2.274-.718 6.089-.948 11.227-4.36 16.589-6.943 1.021-.454 1.656-1.226 2.151-1.985.862-1.363.98-3.08.847-3.706-.132-.626-1.281-2.22-3.18-2.745-1.026-.327-2.243-.421-3.524-.439-2.842-.007-5.594.19-8.522.758-2.724.479-5.503.394-8.255.59-2.189.142-4.44.361-6.525.848-5.14 1.21-10.124 2.549-15.187 3.823-3.119.8-6.238 1.601-9.343 2.543-1.035.314-2.197.782-3.219 1.236-5.693 2.828-11.399 5.514-16.51 9.209-2.65 1.963-5.61 3.671-7.734 5.938-4.58 4.78-9.826 9.269-12.952 15.114-1.075 2.094-2.831 3.757-3.92 5.71-1.343 2.262-2.454 4.715-3.361 7.076l-3.17 9.047c-1.545 4.555-2.95 9.097-3.2 10.187-.15.654-.222 1.371-.308 1.948-.008.64-.067 1.498.256 1.893.758.495 1.548-.15 2.21-.641zM168.34 157.464c.55-.196 1.05-.173 1.676-.305 1.458-.355 2.002-1.332 1.062-2.235-1.018-.967-2.24-1.842-3.498-2.36-.886-.34-1.771-.68-2.72-.942-1.463-.426-2.911-.712-3.193-.684-.204.09-.55.195-.613.272l-.19.232c-2.075 2.05-1.943 2.676-.202 4.496 1.999 2.292 4.524 2.685 7.679 1.526z" fill="#fff"/>
  <path d="M167.426 188.955c.268-.169.536-.337.727-.568 1.933-2.036 4.112-3.74 5.44-6.142.291-.668.658-1.272-.023-1.703-.527-.304-1.258-.517-1.807-.322-.972.237-1.916.755-2.642 1.323-1.53 1.073-2.905 2.272-4.294 3.33-.395.323-.713.71-1.03 1.096-.84.863-.962 1.798-.38 2.665.336.536.786.776 1.362.862.936.122 2.175-.282 2.647-.541z" fill="#fff"/>
  <path d="M150.72 177.153c2.265-.079 3.972-1.524 5.615-2.891 3.018-2.567 3.018-2.567 5.735-.203 1.249 1.157 2.852 1.57 4.795 1.096 1.662-.445 3.337-.75 5.076-1.133.422-.04.972-.236 1.267-.123 3.465 1.297 6.988-.467 10.457-.591 1.844-.038 10.513-5.854 11.643-7.385 1.257-1.685 1.175-2.53-.497-3.646-2.057-1.434-4.237-1.932-6.893-.75-.345.104-.894.3-1.049.173-1.235-1.017-2.806-.366-4.164-.448-1.576-.13-3.215-.184-4.677-.61-2.194-.64-4.192-.729-6.166.884-.994.736-2.002 1.332-3.373 1.11-.654-.15-1.33.2-2.098.346-2.788.555-4.916 2.041-6.323 4.38-.735 1.209-1.883 1.818-3.396 1.61-.717-.073-1.357-.081-2.075-.154-.717-.072-1.512-.208-2.293-.203-3.7-.066-10.732 3.602-12.724 6.496-1.053 1.594-.857 2.143 1.063 2.17 3.279.107 6.684.06 10.076-.128zM129.069 185.37c3.055-.724 5.905-3.56 6.426-6.239.15-.654-.019-.921-.94-.903-.986.096-2.774.696-4.218 1.192-.754.287-1.648.587-2.465.95-.409.182-.88.441-1.276.764-1.184.968-1.85 2.88-1.347 3.683.982 1.326 2.503.893 3.82.552zM100.486 223.104c.486-.118 1.888-1.036 1.97-2.394.072-.717-.151-1.548-.36-2.238-.328-1.176-1.482-1.348-2.371-.267-.318.386-.558.836-.862 1.363-.354.745-.603 1.834-.485 2.32.119.486.391 1.099.687 1.212.295.114.935.122 1.42.004z" fill="#1ea3e0"/>
  <path d="M95.943 235.553c.077.063 2.233-1.141 4.707-2.732a50.84 50.84 0 004.462-3.063c1.057-.813 1.52-2.634 1.805-4.083 1.177-6.153 1.855-12.329 3.314-18.51 1.024-4.078 3.947-7.63 7.269-10.724 6.059-5.634 13.022-10.006 21.603-11.622 6.498-1.13 13.009-2.118 19.478-3.53 9.54-1.993 19.065-4.128 28.486-6.607 5.126-1.351 10.106-3.47 14.245-6.928.331-.245.586-.554.84-.863.444-.54.213-.731-.414-.6-.408.183-.753.287-1.162.47-5.624 3.53-11.653 5.822-18.046 7.297-12.018 2.803-24.022 5.747-36.24 7.22-3.646.497-7.329 1.352-10.92 2.412-8.027 2.202-14.477 6.737-20.023 12.534-2.9 3.053-4.914 6.446-6.556 10.016-.304.527-.53 1.117-.616 1.694a521.76 521.76 0 00-1.797 11.47c-.244 1.872-.425 3.665-.388 5.509.001 2.202-.82 3.987-3.04 5.269l-7.272 4.118c-.204.09-.33.245-.458.4-.19.231-.1.435.118.485.31.254.527.304.605.368zM113.636 188.86c.6-.414 1.044-.954 1.566-1.431 6.15-5.43 11.914-11.177 18.94-15.626 6.147-4.008 13.02-6.382 19.894-8.756 9.134-3.233 18.587-4.65 28.172-5.44 2.393-.233 4.863-.403 7.27-.495 3.546-.06 7.043.097 10.525.113.218.05.423-.041.563-.055.345-.104.395-.322.1-.436-.154-.127-.309-.254-.527-.304-2.166-.357-4.141-.947-6.344-.946-9.168-.031-18.408.655-27.602 2.544-3.273.674-7.557-2.462-7.577-5.586-.046-1.203.59-1.975 1.984-2.253 2.02-.41 4.068-.538 5.726.438 1.876 1.025 3.42 2.295 5.169 3.475.154.127.45.24.604.368.372.176.563-.055.6-.414-.028-.281-.12-.486-.21-.69-2.181-2.7-6.823-5.872-12.23-4.494-2.366.515-3.46 1.687-3.459 3.89.051 1.983 1.046 3.45 2.45 4.734 1.34 1.361 1.213 1.516-.843 2.284-8.444 3.024-17.316 5.308-24.528 10.77-6.028 4.494-11.579 9.51-17.298 14.258-1.248 1.045-2.496 2.09-3.667 3.199-.127.154-.318.386-.368.604-.176.372.055.563.477.522zM92.006 236.717c.19-.231.304-.527.418-.822.249-1.09.294-2.089.543-3.179 1.328-4.605 2.72-9.287 4.111-13.97 1.904-6.72 5.36-12.812 8.881-18.98 1.28-2.184 2.495-4.292 3.775-6.477.127-.154.176-.372.15-.654.035-.359-.196-.55-.605-.367-.204.09-.472.259-.6.413-1.687 2.367-3.439 4.81-4.972 7.304-5.63 8.576-8.773 17.905-11.338 27.319-.249 1.09.079 2.266-.093 3.42-.385 1.884-.911 3.782-1.296 5.667-.05.218-.036.359-.086.577.027.281.132.626.273.612.204-.09.599-.413.84-.863z"/>
  <path d="M169.656 189.235c1.262-.904 2.446-1.872 3.477-2.967 1.22-1.327 2.21-2.844 3.199-4.36a.764.764 0 00.163-.514c.113-.295-.182-.409-.527-.304-.204.091-.409.182-.536.336-2.8 2.617-4.51 5.483-7.942 7.451-.804.505-1.698.805-2.556.746-1.076-.108-1.862-.884-2.022-1.792-.16-.908.167-1.935.802-2.707.876-1.222 2.933-1.99 3.359-3.453.163-.513-2.125.065-2.33.156-.472.259-.866.582-1.261.904-.586.554-2.06 2.19-2.473 3.793-.263.95-.104 1.857.415 2.801.427.74 1.108 1.171 1.84 1.384 1.194.595 4.263.012 6.392-1.474zM129.852 181.74c.409-.181.831-.222 1.24-.404 6.818-2.937 13.469-6.142 20.315-8.797 3.768-1.432 7.9-2.048 11.85-3.071.486-.119 1.035-.314 1.584-.51.895-.3.727-.568-.132-.626-.64-.009-1.14-.031-1.703.023-1.611.228-3.196.738-4.794 1.106-9.82 2.021-18.614 6.571-27.498 10.917-.408.182-.74.427-1.057.813-.663.491-.495.759.195.55zM206.217 159.746c.036-.358-.21-.69-.441-.88-.464-.382-1.295-.159-1.535.291-.113.295-.227.59-.277.808-.15.654-.742 4.051.398 4.082.999.045 1.846-3.66 1.855-4.3z"/>
  <path d="M21.451 86.935c.13-.696.197-1.518.358-2.307.195-1.201 1.957-6.411 3.751-11.716 1.09-3.22 2.242-6.315 3.426-9.504.992-2.62 2.205-5.271 3.638-7.636 1.243-2.114 3.085-3.813 4.264-6.053 3.38-6.247 8.902-10.713 13.825-15.593 2.382-2.361 5.362-3.993 8.184-5.783 5.328-3.582 11.316-5.99 17.208-8.431 1.11-.47 2.186-.844 3.293-.998a235.948 235.948 0 019.653-1.697c5.253-.862 10.506-1.724 15.727-2.492 2.215-.307 4.524-.265 6.705-.16 2.846.012 5.722.562 8.442.321 2.942-.271 5.756-.164 8.696.196 1.295.228 2.464.517 3.569.996 1.83.83 2.96 2.796 3.115 3.587.06.76-.17 2.688-.967 4.107a4.61 4.61 0 01-2.254 1.983c-5.639 2.315-10.966 5.58-17.292 5.869-.76.06-1.52.436-2.279.496-3.544.49-7.215 1.043-10.853 1.502l-8.258 1.007c-.886.123-1.742.467-2.563.4-6.131-.912-12.115.548-18.219.806-1.613.087-3.293.997-4.874.99-1.992-.04-3.766.521-5.414 1.336-3.137 1.473-6.369 2.913-9.38 4.64-3.012 1.725-5.836 3.832-8.722 5.811-.413.283-.825.566-1.08 1.008-1.368 1.86-2.736 3.72-4.136 5.674-.381.504-.7 1.135-.798 1.735-1.315 4.2-2.535 8.433-3.755 12.665-.225.663-.48 1.42-.516 2.148-.08 3.984-1.551 7.71-2.517 11.5-.321 1.263-1.148 2.145-2.383 2.677-1.807.973-3.614 1.945-5.326 2.95-.666.408-1.428 1.1-2.12.338-.281-.729-.277-1.677-.148-2.372zM92.653 3.446c.032-.095.159-.158.19-.253.16-.157.413-.282.635-.313.221-.03 1.737.482 3.188 1.184.916.415 1.83.83 2.714 1.34 1.325.765 2.522 1.909 3.592 3.115.975 1.174.4 2.247-1.118 2.367-.537.029-1.17.026-1.74.15-3.166.935-5.788.26-7.894-2.564-1.666-2.253-1.726-3.012.433-5.026z" fill="#fff"/>
  <path d="M94.345 43.077c.35-.41.667-.725 1.112-1.102 1.522-1.069 2.982-2.264 4.6-3.3a8.33 8.33 0 012.724-1.19c.57-.124 1.39.259 1.895.64.662.541.31 1.267-.04 1.993-1.403 2.587-3.783 4.315-5.752 6.394-.191.252-.445.377-.825.566-.507.25-1.679.593-2.72.24a2.342 2.342 0 01-1.387-1.207c-.69-1.078-.433-2.152.393-3.034z" fill="#fff"/>
  <path d="M69.968 27.76c2.227-3.153 9.451-6.41 13.275-5.856.822.067 1.58.323 2.37.485.695.13 1.39.259 2.148.515 1.548.418 2.783-.114 3.548-1.44 1.56-2.427 3.717-3.81 6.69-4.176.76-.06 1.489-.341 2.152-.117 1.358.354 2.467-.115 3.45-.838 2.094-1.51 4.117-1.247 6.294-.194 1.452.702 3.158.962 4.738 1.285 1.485.292 3.069-.334 4.296 1.031.158.16.727.035 1.076-.058 2.755-.968 4.997-.105 7.012 1.738 1.701 1.525 1.792 2.506.33 4.334-1.273 1.576-10.215 7.102-12.175 6.967-3.603-.269-7.278 1.233-10.748-.68-.347-.223-.822-.067-1.265-.005-1.74.15-3.48.3-5.19.673-2.025.37-3.603-.27-4.861-1.856-2.643-3.11-2.643-3.11-5.848-.5-1.714 1.32-3.554 2.704-5.925 2.536-3.51-.237-6.954-.663-10.367-1.184-1.99-.357-2.178-1.053-1-2.66zM56.663 33.077c.412-.283.856-.66 1.3-.722.823-.25 1.773-.561 2.596-.81 1.393-.374 3.388-.966 4.304-.867.822.067 1.042.352.88 1.142-.708 3.033-3.661 5.834-6.89 6.326-1.328.184-2.816.525-3.663-1.028-.628-.951.171-3.003 1.473-4.041zM26.116 75.95c-.092-.664.198-1.833.581-2.654.287-.536.542-.978.892-1.387.985-1.04 2.121-.655 2.4.706.217.918.34 1.804.273 2.626-.196 1.517-1.655 2.396-2.098 2.457-.537.03-1.138-.068-1.39-.259-.252-.19-.534-.92-.658-1.489z" fill="#1ea3e0"/>
  <path d="M22.445 91.176c-.285-.096-.315-.317-.124-.57.158-.157.317-.314.444-.377 2.535-1.254 5.103-2.602 7.638-3.856 2.409-1.191 3.27-3.116 3.377-5.614.072-2.087.271-4.236.66-6.322.714-4.297 1.524-8.563 2.238-12.86.098-.601.417-1.232.704-1.768 1.851-3.914 4.05-7.604 7.099-10.69 5.813-5.95 12.662-10.285 20.891-11.83 3.735-.742 7.5-1.264 11.232-1.374 12.556-.292 24.992-2.104 37.363-3.725 6.613-.825 12.978-2.79 18.843-6.084.38-.188.76-.376 1.203-.438.697-.186.885.194.409.666-.318.315-.54.662-.921.85-4.348 3.491-9.573 5.207-14.826 6.07-9.748 1.665-19.556 2.887-29.427 3.982-6.676.698-13.35 1.08-20.056 1.556-8.795.72-16.086 4.8-22.562 10.527-3.587 3.115-6.734 6.8-7.86 11.381-1.77 6.791-2.686 13.87-4.171 20.758-.323 1.58-.807 3.633-2.012 4.387-1.522 1.068-3.108 2.01-4.693 2.952-2.631 1.538-4.881 2.572-4.976 2.54zM41.834 39.779c.096-.284.16-.474.35-.726 1.239-1.164 2.54-2.202 3.841-3.24 6.03-4.717 11.965-9.782 18.214-14.214 7.613-5.342 16.759-6.789 25.497-9.217 2.09-.56 2.28-.812.96-2.526-1.32-1.713-2.293-3.52-2.283-5.733.105-2.498 1.154-3.727 3.686-4.032 5.537-.766 10.23 3.46 12.398 6.727.125.253.156.475.155.791.06.443-.225.663-.572.44-.157-.158-.441-.255-.599-.413-1.7-1.526-3.337-3.24-5.197-4.608-1.67-1.304-3.725-1.471-5.813-1.228-1.424.152-2.029 1.003-2.066 2.363-.11 3.446 4.172 7.64 7.557 7.306 9.523-1.001 18.914-.676 28.3.599 2.212.326 4.327 1.252 6.443 1.862.19.064.347.223.504.382.22.286.156.475-.16.474-.221.03-.443.061-.632-.003-3.635-.49-7.142-1.043-10.809-1.439-2.434-.295-4.963-.306-7.367-.38-9.833-.265-19.48.167-29.01 2.75-7.092 1.93-14.247 3.733-20.715 7.562C57.161 27.545 51.064 33.4 44.59 38.811c-.571.44-1.08 1.007-1.65 1.447-.16.158-.381.188-.697.187-.349.093-.537-.287-.408-.666zM17.95 92.295c-.031-.221.033-.41.129-.695.483-2.053 1.093-4.17 1.482-6.255.227-1.295-.052-2.656.238-3.825 2.892-10.423 6.479-20.717 12.622-29.829 1.719-2.585 3.533-5.139 5.346-7.692.16-.158.413-.283.666-.408.38-.189.695.13.567.508-.096.284-.065.506-.224.663-1.307 2.303-2.835 4.636-4.142 6.939-3.823 6.624-7.647 13.248-9.83 20.638-1.54 5.18-3.176 10.327-4.684 15.412-.385 1.137-.39 2.402-.68 3.57-.096.285-.192.569-.415.916-.255.441-.7.819-.89.755-.094-.032-.187-.38-.186-.697z"/>
  <path d="M91.893 46.892c-1.16-2.187-.296-4.428 1.134-6.161.667-.725 1.493-1.606 2.444-1.918.221-.031 2.468-.432 2.308.041-.418 1.548-2.572 2.297-3.494 3.464-.604.85-1.084 1.955-.898 2.968.153 1.108.908 1.996 1.982 2.254.885.194 1.835-.118 2.722-.557 3.676-1.818 5.555-4.877 8.445-7.49.158-.157.38-.188.633-.313.349-.093.6.098.505.382l-.192.568c-1.146 1.513-2.133 3.185-3.436 4.539-1.111 1.102-2.318 2.172-3.65 2.988-2.25 1.35-5.446 1.747-6.676 1.014-.82-.383-1.388-.891-1.827-1.779zM59.602 33.437a4.44 4.44 0 011.11-.785c9.251-3.944 18.44-8.015 28.5-9.046 1.646-.183 3.355-.554 4.968-.642.538-.03 1.138.068 1.739.165 1.011.131 1.01.448.092.665-.57.124-1.045.28-1.615.404-4.019.646-8.32.88-12.183 2.002-7.189 2.214-14.158 5.03-21.126 7.529-.38.188-.823.249-1.266.31-.697.187-.822-.067-.22-.602zM136.543 18.5l.288-.852c.255-.441 1.141-.564 1.519-.12.22.286.44.572.407.983-.035.727-1.034 4.928-2.013 4.703-1.106-.163-.362-3.923-.2-4.713z"/>
  <g>
    <path d="M175.165 63.975c4.892-3.034 10.352-5.045 15.736-7.122a23.263 23.263 0 012.989-.846c2.877-.413 5.82-.902 8.773-1.25 4.777-.616 9.479-1.298 14.2-1.698 2.04-.213 4.036-.068 6.03.076 2.56.105 5.082.71 7.622.532 2.615-.111 5.174-.006 7.828.447 1.148.204 2.23.483 3.117.988 1.62.88 2.595 2.654 2.71 3.284.114.63-.191 2.353-1.09 3.691-.515.745-1.181 1.358-2.15 1.71-5.11 1.915-10.023 4.667-15.62 4.703-.705.05-1.391.38-2.096.43-3.235.367-6.546.669-9.78 1.036-2.465.242-4.939.344-7.403.586-.77.125-1.607.325-2.322.233-5.46-1.037-10.978.127-16.434.153-1.487.033-2.924.771-4.42.663-1.778-.09-3.31.301-4.888 1.05-2.894 1.193-5.788 2.387-8.521 3.854-2.733 1.466-5.371 3.28-8.02 4.953-.337.236-.74.548-1.003.85-1.303 1.65-2.605 3.3-3.833 5.016-.393.453-.636 1.037-.813 1.545-1.297 3.776-2.527 7.477-3.823 11.253-.243.584-.552 1.244-.578 1.884-.177 3.556-1.579 6.843-2.622 10.177-.345 1.158-1.076 1.847-2.176 2.349l-4.931 2.47c-.686.331-1.352.945-1.9.203-.311-.403-.23-1.26-.137-1.975.092-.715.259-1.365.426-2.014.28-1.083 1.753-5.368 3.387-9.38 1.27-3.137 2.399-6.263 3.744-9.334a46.968 46.968 0 013.498-6.765c1.217-1.857 2.888-3.32 4.03-5.243 3.228-5.54 8.353-9.3 12.875-13.585 2.346-1.935 5.089-3.26 7.595-4.924zM206.483 42.442c.131-.151.338-.237.62-.256.207-.086 1.526.531 2.845 1.148l2.43 1.32c1.188.767 2.255 1.827 3.114 2.972.784 1.08.213 2.04-1.057 2.13-.564.039-.997-.073-1.551.108-2.924.77-5.174.006-6.979-2.491-1.502-2.235-1.542-2.799.457-4.64-.01-.14.055-.216.121-.291z"/>
    <path d="M211.773 74.608c.817-.482 1.644-.823 2.556-.958.488-.105 1.223.27 1.676.663.604.525.22 1.119-.089 1.778-1.329 2.29-3.563 3.793-5.354 5.548-.197.226-.47.387-.676.472-.414.17-1.598.466-2.474.102a2.208 2.208 0 01-1.207-1.05c-.492-.958-.345-1.89.453-2.654.328-.378.59-.68.994-.991a38.945 38.945 0 014.12-2.91z"/>
    <path d="M197.21 58.895c.715.092 1.375.4 2.09.492l1.949.502c1.374.4 2.474-.101 3.251-1.148 1.48-2.159 3.527-3.294 6.132-3.546.64.026 1.401-.24 1.91-.062 1.234.41 2.267-.017 3.15-.574 1.962-1.342 3.684-1.037 5.672.03 1.254.692 2.835 1.007 4.275 1.332 1.3.335 2.822-.197 3.832 1.08.151.13.64.026.922.006 2.5-.741 4.469.043 6.29 1.76 1.443 1.387 1.512 2.375.2 3.884-1.182 1.358-9.427 6.115-11.15 5.81-3.143-.348-6.525.95-9.56-.894-.292-.121-.79-.157-1.139-.062-1.551.108-3.103.216-4.72.4-1.825.269-3.22-.414-4.305-1.756-2.257-2.89-2.257-2.89-5.223-.699-1.549 1.171-3.314 2.287-5.384 2.077-3.143-.348-6.22-.772-9.308-1.336-1.723-.306-1.837-.936-.807-2.425 1.93-2.828 8.554-5.416 11.923-4.871zM174.207 67.515c.837-.2 1.598-.466 2.369-.59 1.325-.305 2.999-.705 3.92-.699.781.017.877.364.785 1.08-.735 2.674-3.54 5.137-6.353 5.475-1.194.154-2.595.393-3.333-1.044-.492-.958.302-2.785 1.447-3.645.338-.236.752-.406 1.165-.577zM147.888 102.806c.2.836.325 1.607.167 2.398-.193 1.29-1.555 2.093-1.978 2.123-.423.03-.997-.073-1.224-.27-.226-.196-.482-.816-.521-1.38-.04-.565.174-1.572.613-2.383.253-.443.506-.885.91-1.197.862-.84 1.804-.551 2.033.709z" fill="#fff"/>
    <path d="M180.703 72.237c3.366-.518 6.742-.895 10.148-.85 11.28.136 22.46-1.14 33.727-2.208 5.982-.63 11.697-2.02 17.098-4.877.272-.161.76-.266 1.109-.361.63-.115.79.157.396.61-.262.302-.524.604-.797.764-4.045 2.976-8.698 4.363-13.475 4.98-8.773 1.25-17.727 1.944-26.54 2.63-5.99.488-12.01.553-18.021.759-7.986.344-14.617 3.854-20.585 8.735-3.285 2.71-6.182 5.89-7.458 9.948-1.845 6.082-2.898 12.322-4.385 18.45-.325 1.441-.912 3.183-1.926 3.892-1.352.945-2.855 1.758-4.292 2.496-2.46 1.306-4.452 2.224-4.528 2.159-.075-.066-.292-.122-.584-.243-.216-.056-.301-.262-.105-.489.132-.15.263-.302.404-.311 2.264-1.08 4.669-2.169 6.933-3.248 2.132-.928 3.077-2.625 3.127-4.967.079-1.92.374-3.783.745-5.58l2.393-11.438c.101-.574.42-1.092.663-1.676 1.814-3.458 3.93-6.654 6.716-9.4 5.535-4.993 11.799-8.69 19.237-9.775zM180.294 58.23c6.985-4.526 15.345-5.605 23.223-7.501 1.88-.485 2.01-.636.905-2.26-1.17-1.55-1.994-3.193-1.925-5.253.125-2.277 1.184-3.344 3.442-3.5 4.993-.561 9.097 3.405 10.865 6.401.086.207.171.413.19.696.03.423-.242.584-.544.321l-.528-.46c-1.52-1.453-2.907-3.057-4.481-4.294-1.434-1.247-3.288-1.402-5.197-1.34-1.27.09-1.86.768-1.913 2.048-.207 3.133 3.464 6.988 6.568 6.772 8.54-.524 17.018.09 25.403 1.42 1.94.36 3.842 1.22 5.735 1.939a.637.637 0 01.453.394c.226.196.17.413-.112.433l-.564.039c-3.228-.555-6.39-1.185-9.61-1.599-2.22-.341-4.422-.4-6.633-.6-8.826-.52-17.547-.55-26.12 1.536-6.486 1.516-12.907 2.955-18.852 6.134-6.697 3.586-12.439 8.664-18.351 13.329-.47.387-.929.915-1.549 1.171-.207.085-.413.17-.63.115-.348.095-.508-.177-.397-.61.056-.217.253-.443.384-.594 1.135-1 2.422-1.87 3.567-2.73 5.397-3.92 10.84-8.198 16.67-12.006zM156.9 77.51c-.056.217-.112.434-.243.585-1.273 2.073-2.622 4.08-3.97 6.089-3.633 5.853-7.265 11.705-9.503 18.24-1.52 4.643-3.19 9.154-4.644 13.721-.354 1.017-.417 2.156-.771 3.173-.122.292-.243.584-.44.81-.253.443-.59.68-.807.623-.141.01-.236-.338-.256-.62.056-.216.046-.357.102-.574.512-1.808 1.09-3.69 1.592-5.64.278-1.082-.027-2.408.328-3.425 2.963-9.35 6.445-18.382 12.197-26.368 1.611-2.31 3.373-4.488 5.06-6.732.13-.15.338-.236.544-.321.63-.115.857.082.81.44z"/>
    <path d="M209.788 74.604c-.4 1.375-2.346 1.936-3.265 2.992-.328.378-.58.82-.692 1.254-.233.725-.135 2.136.403 2.736.312.404.689.732 1.188.768.866.223 1.627-.043 2.454-.384 3.297-1.506 5.161-4.258 7.845-6.43.131-.15.338-.236.62-.256.348-.095.574.102.453.394-.056.217-.122.292-.177.509-1.04 1.348-2.005 2.762-3.196 3.979-.995.99-2.14 1.85-3.436 2.579-2.047 1.135-4.934 1.407-6.046.704-.594-.383-1.122-.843-1.539-1.735-.918-1.992-.134-3.96 1.244-5.545.59-.679 1.322-1.368 2.224-1.643-.01-.141 2.097-.43 1.92.078zM176.645 67.912c8.419-3.28 16.762-6.626 25.932-7.265 1.477-.174 2.953-.348 4.44-.38.498.036.997.072 1.571.174.866.223.951.43.115.63l-1.467.315c-3.724.472-7.477.52-11.03 1.406-6.467 1.798-12.829 4.084-19.21 6.088-.348.095-.696.19-1.12.22-.629.115-.714-.092-.18-.555.263-.301.6-.538.949-.633zM246.958 56.703c.161.273.322.545.351.968-.026.64-1.04 4.397-1.972 4.249-1.007-.213-.18-3.602-.013-4.252.056-.217.178-.509.3-.8.176-.51.947-.634 1.334-.165z"/>
  </g>
  <path d="M106.7 107.093c-1.6 0-3.2.2-4.8.7-3.8 1-7.3 2.3-10.7 4.1-3.3 1.7-7 2.5-10.5 3.9-2.8 1.1-5.6 2.1-8.2 3.6-6.1 3.4-12.1 7-18.1 10.6-3.7 2.2-7.4 4.4-11 6.7-1.3.8-2.5 1.8-3.6 2.8-6 5.8-12.1 11.4-16.9 18.2-2.5 3.5-5.4 6.9-7.1 10.7-3.6 8-8.2 15.8-9.2 24.6-.4 3.1-1.7 5.9-2.2 8.9-.6 3.5-.8 7-.7 10.5.1 4.3.3 8.5.5 12.8.3 6.7.9 13.3 1.2 14.8l.6 2.7c.2.9.6 2 1.4 2.4 1.2.6 1.7-.6 2.4-1.5 1.7-2 3.3-4 5.1-6 1.1-1.3 1.7-2.6 1.5-4.3-.6-4.8-.7-9.7-2.6-14.3-.3-.8-.3-1.8-.4-2.6-.6-5.4-1.1-10.8-1.7-16.3-.1-.8 0-1.6.2-2.4.7-2.8 1.4-5.7 2.2-8.5.2-.6.5-1.2.9-1.7 2.5-3.7 4.9-7.5 7.7-10.9 2.8-3.5 6.1-6.7 9.2-9.9 1.7-1.7 3.6-3.2 6-4.1 2-.8 3.5-2.6 5.5-3.5 7.3-3.3 14-8 21.9-10 1.1-.3 2-1.1 3-1.7 3.2-1.7 6.4-3.4 9.6-5.2 4.2-2.3 8.4-4.7 12.5-7 .9-.5 1.7-1.3 2.6-1.7 7.6-3.5 12.5-9.8 18.2-15.2 1.1-1 1.6-2.1 1.8-3.4.4-2.1-.3-4.4-.8-5.2-.4-.9-2.8-2.6-5.5-2.6zM67.1 113.293c-1.8-.9-3.9-1.6-5.9-1.8-1.3-.2-2.7-.2-4-.2-2.2 0-4.2.1-4.5.3-.3.2-.6.5-.6.7 0 .1-.1.3-.2.4-1.6 3.4-1.2 4.2 2.1 6 3.9 2.2 7.4 1.7 10.9-1 .6-.4 1.4-.6 2-1 1.7-1.1 1.9-2.6.2-3.4z" fill="#fff"/>
  <path d="M83.8 145.993c-.8-.2-1.9-.2-2.6.2-1.1.7-2.1 1.7-2.8 2.7-1.4 1.9-2.7 4-4 6-.3.5-.5 1.2-.8 1.7-.6 1.4-.3 2.7.9 3.6.7.5 1.5.7 2.3.7 1.4-.1 2.7-1.1 3.2-1.6.3-.3.5-.6.7-1 1.5-3.3 3.5-6.5 3.9-10.1.2-.9.3-1.9-.8-2.2z" fill="#fff"/>
  <path d="M102.2 114.393c-3.4-1.1-6.6-1-9.5 1.5-.3.3-1 .7-1.2.6-2.2-.9-3.9.6-5.8 1-2.1.5-4.3 1-6.5.9-3.3-.1-5.8.6-7.7 3.4-.9 1.3-2 2.4-3.8 2.6-.9.1-1.7.8-2.6 1.2-3.4 1.8-5.4 4.4-6.1 8-.4 1.9-1.5 3.1-3.7 3.4-1 .1-1.9.4-2.8.5-1 .2-2.1.3-3.1.6-4.9 1.3-12.2 8.6-13.3 13.3-.6 2.5 0 3.2 2.5 2.5 4.5-1.1 9-2.3 13.3-3.8 2.9-1 4.5-3.4 5.9-5.9 2.7-4.5 2.7-4.5 7.5-2.3 2.3 1.1 4.6 1.1 6.8-.4 1.9-1.2 4-2.3 6.1-3.3.5-.3 1.1-.6 1.6-.6 5.2.5 8.9-3.1 13.4-4.6 2.4-.8 10.7-11.6 11.4-13.9 1-2.7.4-3.8-2.4-4.7zM31.3 157.193c-1.2.4-3.3 2-4.9 3.1-.9.7-1.8 1.4-2.8 2.1-.5.4-.9 1-1.2 1.5-1 1.7-1 4.5.2 5.3 1.8 1.3 3.5.3 5-.7 3.6-2.1 5.9-6.9 5.2-10.6 0-.7-.4-1-1.5-.7zM7.7 221.093c-.6.1-1.2.5-1.5 1.4-.3.6-.4 1.3-.4 2-.1 1.1.2 2.6.6 3.3.4.7 1.1 1.3 1.5 1.4.4.1 1.3-.1 1.8-.4.6-.3 1.9-2.1 1.4-3.9-.4-1.7-2.2-3.9-3.4-3.8z" fill="#bf170f"/>
  <path d="M113.6 117.293c-.5.3-.9.7-1.3 1.1-5.5 6.7-12.3 12-20 16.2-14.4 8-28.7 16.3-43.9 22.8-4.6 2-8.9 4.5-13.1 7.1-9.4 5.9-15.6 14.2-19.8 23.8-2.2 5-3.1 10.3-3.4 15.6-.1.8-.1 1.6.1 2.4 1.2 5.2 2.3 10.5 3.6 15.7.6 2.5 1.4 5 2.3 7.4 1.2 3 1 5.6-1.3 8.1-2.5 2.7-5 5.4-7.4 8.1-.2.2-.3.4-.4.7-.1.4 0 .6.4.6.4-.1.8-.1.9 0 .1.1 2.3-2.3 4.8-5.3 1.5-1.8 3-3.7 4.3-5.7 1-1.5.6-4.1.2-6-1.7-8.5-4-17-5.2-25.6-.8-5.7 1.3-11.5 4-16.8 5.1-9.7 11.9-18 22.4-23.1 7.9-3.9 16-7.5 23.8-11.7 11.5-6.2 23-12.4 34.1-19.1 6-3.7 11.5-8.2 15.1-14.3.3-.5.5-1 .6-1.5.3-.8-.1-1.1-.8-.5zM107 104.793c-.3-.1-.5-.2-.8-.1-3 .3-6 .3-8.8 1.1-12.1 3.3-23.9 7.6-35 13.4-4 2.1-11.3-.5-12.9-4.5-.6-1.6-.3-2.8 1.4-3.7 2.5-1.3 5.1-2.1 7.8-1.5 2.9.7 5.7 1.8 8.6 2.7.3.1.6.2 1 .2.5.1.8-.3.5-.8-.2-.3-.4-.6-.6-.8-4.2-2.7-12.1-5.2-18.5-1.5-2.9 1.5-3.6 3.6-2.5 6.4 1.1 2.6 3.2 4.1 5.7 5.4 2.5 1.3 2.4 1.6.1 3.3-9.5 7.1-20 13.3-26.7 23.2-5.5 8.1-10.2 16.7-15.3 25.1-1.1 1.8-2.2 3.7-3.2 5.5-.1.3-.2.6-.1.9 0 .5.4.8.9.5.3-.2.5-.3.7-.6.6-.7.9-1.6 1.3-2.4 5.2-9.3 9.8-19 16.7-27.5 6-7.4 13.8-13.1 21.6-18.8 10.4-7.6 22.1-12.9 34.2-17.5 3.1-1.2 6.1-2.3 9.3-3.3 4.6-1.4 9.3-2.5 13.9-3.7.3-.1.5-.2.7-.3.4-.3.4-.6 0-.7zM5.4 184.993c-.3.2-.5.5-.6.8-1 3.8-1.9 7.6-2.8 11.4-2.9 13.4-2.2 26.8-.7 40.1.2 1.5 1.3 2.9 1.6 4.5.6 2.6.8 5.3 1.2 7.9 0 .3.1.5.2.8.2.4.5.7.8.7.2 0 .5-.6.7-1.3.1-.4.1-.8.1-1.2-.2-1.5-.8-2.9-.9-4.4-.7-6.6-1.2-13.2-1.9-19.9-1-9.5.4-18.9 1.8-28.3.5-3.3 1.1-6.6 1.6-9.9 0-.3 0-.6-.1-.9-.1-.5-.6-.6-1-.3z"/>
  <path d="M87.4 145.993c-.2.2-.5.4-.6.6-2.3 4.4-3.1 8.9-6.6 12.8-.8.9-1.8 1.8-3 2-1.4.2-2.8-.5-3.6-1.6-.7-1.1-.8-2.6-.4-3.8.5-1.9 2.9-3.7 2.6-5.7-.1-.7-2.7.9-2.9 1.1-.5.5-.9 1-1.2 1.6-.5 1-1.6 3.7-1.2 5.9.4 2.3 3.3 4.5 5.2 4.7 1.9.2 5.6-1.8 7.6-4.5 1.3-1.6 2.3-3.4 3-5.2.9-2.2 1.4-4.5 2-6.8.1-.2 0-.5 0-.7-.2-.6-.5-.7-.9-.4zM65.7 133.193c-.8.2-1.5.4-2.2.7-2 .9-3.9 2.1-5.8 3.2-11.9 6.2-21.1 15.4-30.4 24.5-.4.4-.7.9-1 1.4-.4.8-.1 1.1.6.6.5-.3.9-.6 1.4-1 7.4-6.4 14.5-13 22.2-19 4.2-3.3 9.3-5.6 14-8.4l1.8-1.2c.8-.7.6-1.1-.6-.8zM114.9 105.793c-.7-.3-1.8.3-1.8.9 0 .4 0 .8.1 1.2.2.9 1.1 5.6 2.6 5.2 1.3-.3.5-5.5.1-6.4-.2-.4-.6-.7-1-.9z"/>
</svg>
