<svg xmlns="http://www.w3.org/2000/svg" width="527.878" height="420.548" viewBox="0 0 139.668 111.27">
  <defs>
    <radialGradient id="a" cx="102380" cy="133130" r="0" gradientUnits="userSpaceOnUse">
      <stop stop-color="#fff" stop-opacity="0" offset="0"/>
      <stop stop-color="#fff" offset="1"/>
    </radialGradient>
  </defs>
  <path class="fil9 str1" d="M35.178 32.939c4.022-2.997 4.715-4.605 7.79-4.993 1.354-.398 5.047-.141 4.359.574.053.332 1.162-.453 1.215-.121.06.646-.691.994-.705 1.52-.633.083-.6 2.504-1.645 2.412.609.544-.242 1.28-1.428 1.452-.686 2.582-6.326-.283-9.586-.844z" fill="#b18e32" stroke="#000" stroke-width=".25"/>
  <path class="fil8 str1" d="M42.84 28.729c-2.07.848-1.988 3.652-4.755 3.768 1.613.693 5.326.929 6.832.748m1.547-4.125c-1.191.55-2.197 1.106-2.784 1.957 1.028.288 2.21-.337 3.148-.874m.182-.626c-2.265 1.45-6.341 2.767-10.497 2.905m8.54-3.681c-2.727 1.164-1.877 2.72-3.935 3.022 2.086.466 4.244.28 5.223-.197" fill="none" stroke="#000" stroke-width=".25"/>
  <path class="fil9 str1" d="M32.306 30.039c-4.998-4.192-7.319-4.675-8.597-8.301-.866-1.545-1.433-6.058-.308-5.386.431-.136-.892-1.302-.46-1.438.847-.215 1.497.614 2.206.516.266.746 3.493.174 3.628 1.455.577-.854 1.772.01 2.293 1.405 3.621.26 1.183 7.694 1.238 11.749z" fill="#b18e32" stroke="#000" stroke-width=".25"/>
  <path class="fil8 str1" d="M24.797 21.719c1.645 2.312 5.372 1.598 6.21 4.91.528-2.098-.073-6.63-.686-8.407m-5.895-.96c1.03 1.316 2.02 2.407 3.303 2.929.131-1.303-.997-2.593-1.945-3.607m-.882-.081c2.496 2.414 5.263 7.043 6.472 12.027m-7.026-9.497c2.23 3.036 4.1 1.669 5.01 4.086.108-2.62-.672-5.183-1.552-6.26" fill="none" stroke="#000" stroke-width=".25"/>
  <path class="fil9 str1" d="M33.637 31.669c5.873-4.392 9.082-5.347 8.656-8.807.595-1.132 1.019-3.035-.053-2.765.337-1.197.56-3.155-.392-2.543-.413-.13.397-1.265-.016-1.395-.813-.202-2.414.554-2.98.324-.25.749-1.206.18-1.327 1.464-.557-.845-1.476-.311-1.966 1.089-2.589-1.258-3.937 8.596-1.922 12.633z" fill="#b18e32" stroke="#000" stroke-width=".25"/>
  <path class="fil8 str1" d="M41.252 22.729c-1.422 1.902-3.464 3.452-6.555 5.54-.499-2.555-.753-4.497-.664-6.838m8.063-3.863c-1.264 1.627-2.534 3.225-4.05 3.886-.081-1.591.505-3.258 1.395-4.96m2.363-.107c-3.022 2.997-6.522 9.267-8.19 15.383m8.653-11.741c-2.494 2.37-5.328 3.847-6.587 6.178.015-3.201.109-6.402 1.187-7.734" fill="none" stroke="#000" stroke-width=".25"/>
  <path class="fil11" d="M41.625 37.149c.513 3.06-12.507 2.172-13.829 1.64 1.346-.746 13.49-4.638 13.829-1.64z" fill="#faf5d5" stroke-width=".265" stroke="#000"/>
  <path class="fil11" d="M41.603 40.779c-.297 3.09-12.643-1.138-13.782-1.993 1.494-.374 14.232-.99 13.782 1.993z" fill="#faf5d5" stroke-width=".265" stroke="#000"/>
  <path class="fil11" d="M40.645 44.269c-1.087 2.908-11.918-4.371-12.797-5.492 1.54.026 14.003 2.727 12.797 5.492z" fill="#faf5d5" stroke-width=".265" stroke="#000"/>
  <path class="fil11" d="M37.815 46.579c-1.822 2.535-9.647-6.79-10.167-8.008 1.376.394 12.229 5.613 10.167 8.008z" fill="#faf5d5" stroke-width=".265" stroke="#000"/>
  <path class="fil11" d="M34.494 49.579c-2.58 1.759-6.742-9.68-6.814-11.002 1.158.84 9.57 9.456 6.814 11.002z" fill="#faf5d5" stroke-width=".265" stroke="#000"/>
  <path class="fil11" d="M28.113 51.549c-3.112.234-.998-11.754-.399-12.934.582 1.306 3.56 12.974.4 12.934z" fill="#faf5d5" stroke-width=".265" stroke="#000"/>
  <path class="fil11" d="M24.761 51.239c-3.067-.58 2.077-11.612 2.961-12.598.225 1.414.081 13.454-2.96 12.598z" fill="#faf5d5" stroke-width=".265" stroke="#000"/>
  <path class="fil11" d="M20.078 48.389c-2.542-2.157 6.482-9.207 7.644-9.703-.376 1.313-5.343 11.654-7.644 9.703z" fill="#faf5d5" stroke-width=".265" stroke="#000"/>
  <path class="fil11" d="M16.917 44.169c-.95-1.863 9.525-5.494 10.788-5.453-.895 1.032-9.188 8.589-10.788 5.453z" fill="#faf5d5" stroke-width=".265" stroke="#000"/>
  <path class="fil11" d="M16.65 40.259c-.089-2.105 9.99-1.988 11.024-1.516-1.133.679-10.876 5.06-11.025 1.516z" fill="#faf5d5" stroke-width=".265" stroke="#000"/>
  <path class="fil11" d="M16.528 36.159c.69-2.05 10.298 1.763 11.115 2.595-1.334.234-12.274.853-11.115-2.595z" fill="#faf5d5" stroke-width=".265" stroke="#000"/>
  <path class="fil11" d="M17.074 32.109c1.441-1.884 9.986 5.49 10.54 6.644-1.347-.243-11.958-3.671-10.54-6.644z" fill="#faf5d5" stroke-width=".265" stroke="#000"/>
  <path class="fil11" d="M18.883 29.339c1.934-1.488 8.463 8.117 8.707 9.41-1.275-.6-10.908-6.833-8.707-9.41z" fill="#faf5d5" stroke-width=".265" stroke="#000"/>
  <path class="fil11" d="M23.928 26.419c2.393-.475 3.982 11.029 3.626 12.297-.875-1.104-6.742-10.964-3.626-12.297z" fill="#faf5d5" stroke-width=".265" stroke="#000"/>
  <path class="fil11" d="M28.945 25.939c2.391.486-.589 11.71-1.407 12.742-.382-1.356-1.982-12.717 1.407-12.742z" fill="#faf5d5" stroke-width=".265" stroke="#000"/>
  <path class="fil11" d="M32.193 26.709c2.183 1.089-3.6 11.16-4.658 11.945-.017-1.41 1.377-12.798 4.658-11.945z" fill="#faf5d5" stroke-width=".265" stroke="#000"/>
  <path class="fil11" d="M35.13 28.289c1.828 1.617-6.366 9.848-7.59 10.332.348-1.365 4.642-12.005 7.59-10.332z" fill="#faf5d5" stroke-width=".265" stroke="#000"/>
  <path class="fil11" d="M37.557 30.589c1.347 2.035-8.698 7.865-10.006 8.016.69-1.23 7.591-10.395 10.006-8.016z" fill="#faf5d5" stroke-width=".265" stroke="#000"/>
  <path class="fil11" d="M39.404 34.279c.778 2.349-10.523 4.583-11.836 4.302.993-.933 10.109-7.321 11.836-4.302z" fill="#faf5d5" stroke-width=".265" stroke="#000"/>
  <path class="fil13" d="M29.763 38.669a2.174 2.174 0 11-4.32.486 2.174 2.174 0 014.32-.486z" fill="#cbc332"/>
  <path class="fil9 str1" d="M124.818 23.829c4.625-2.7 5.553-4.324 8.864-4.37 1.484-.26 5.373.455 4.558 1.132.015.359 1.287-.342 1.303.017-.013.692-.851.972-.93 1.53-.681.012-.935 2.585-2.034 2.362.58.65-.41 1.33-1.69 1.37-1.036 2.659-6.68-1.056-10.071-2.041z" fill="#b18e32" stroke="#000" stroke-width=".25"/>
  <path class="fil8 str1" d="M133.448 20.289c-2.3.653-2.547 3.638-5.498 3.43 1.629.929 5.542 1.623 7.162 1.612m2.135-4.193c-1.33.44-2.464.91-3.19 1.744 1.057.428 2.388-.094 3.447-.551m.267-.643c-2.576 1.267-7.061 2.178-11.488 1.828m9.505-2.885c-3.035.909-2.318 2.662-4.54 2.736 2.159.744 4.472.806 5.568.415" fill="none" stroke="#000" stroke-width=".25"/>
  <path class="fil9 str1" d="M122.118 20.419c-4.804-5.047-7.21-5.837-8.132-9.838-.734-1.744-.797-6.602.317-5.753.474-.093-.791-1.49-.317-1.583.925-.126 1.516.832 2.28.813.194.823 3.687.6 3.677 1.977.715-.837 1.88.224 2.266 1.766 3.812.709.336 8.307-.091 12.618z" fill="#b18e32" stroke="#000" stroke-width=".25"/>
  <path class="fil8 str1" d="M115.138 10.689c1.469 2.65 5.51 2.337 6.005 5.954.81-2.164.714-7.046.277-9.006m-6.143-1.724c.935 1.52 1.857 2.797 3.155 3.504.296-1.367-.747-2.871-1.633-4.06m-.926-.192c2.36 2.86 4.744 8.105 5.432 13.539m-6.323-10.92c2.003 3.489 4.152 2.26 4.829 4.936.428-2.768-.093-5.582-.898-6.83" fill="none" stroke="#000" stroke-width=".25"/>
  <path class="fil9 str1" d="M123.328 22.309c6.757-3.961 10.277-4.591 10.239-8.314.767-1.13 1.445-3.1.275-2.94.5-1.231.972-3.282-.112-2.747-.424-.187.572-1.295.149-1.482-.84-.311-2.63.299-3.202-.013-.354.765-1.3.048-1.582 1.395-.49-.963-1.53-.506-2.217.922-2.597-1.645-5.206 8.653-3.55 13.179z" fill="#b18e32" stroke="#000" stroke-width=".25"/>
  <path class="fil8 str1" d="M132.478 13.729c-1.737 1.849-4.09 3.249-7.62 5.098-.223-2.773-.26-4.865.113-7.338m9.019-3.137c-1.535 1.576-3.075 3.12-4.761 3.64.102-1.7.924-3.398 2.072-5.097m2.52.168c-3.565 2.82-8.028 9.056-10.53 15.349m10.587-11.428c-2.931 2.219-6.115 3.446-7.73 5.77.398-3.396.88-6.782 2.184-8.066" fill="none" stroke="#000" stroke-width=".25"/>
  <path class="fil9 str1" d="M107.078 53.019c4.564 6.265 5.487 9.879 9.266 8.928 1.208.544 3.263.789 3.008-.425 1.29.235 3.412.238 2.78-.792.157-.5 1.363.297 1.519-.202.249-.974-.515-2.741-.244-3.43-.806-.193-.154-1.381-1.544-1.353.939-.761.39-1.761-1.115-2.148 1.463-3.182-9.206-3.457-13.67-.578z" fill="#b18e32" stroke="#000" stroke-width=".25"/>
  <path class="fil8 str1" d="M116.518 60.709c-2.017-1.407-3.628-3.583-5.79-6.91 2.8-.918 4.92-1.47 7.464-1.674m4.067 8.927c-1.725-1.258-3.573-2.568-4.238-4.246 1.735-.306 3.526.158 5.344.972m.17 2.878c-3.15-3.128-9.981-6.52-16.574-7.66m12.458 8.54c-2.49-2.594-3.991-5.703-6.481-6.864 3.48-.404 6.959-.715 8.368.366" fill="none" stroke="#000" stroke-width=".25"/>
  <path class="fil9 str1" d="M98.108 57.349c.39 7.822-.677 11.235 2.643 12.92.648 1.203 2.08 2.714 2.48 1.603.86 1.012 2.463 2.379 2.489 1.17.36-.29.884 1.106 1.245.817.664-.6.95-2.47 1.49-2.834-.514-.667.559-1.175-.506-2.047 1.08.009 1.156-1.123.207-2.392 2.659-1.544-5.27-8.615-10.048-9.237z" fill="#b18e32" stroke="#000" stroke-width=".25"/>
  <path class="fil8 str1" d="M101.488 69.419c-.837-2.394-.992-5.127-1.001-9.111 2.563 1.082 4.435 2.015 6.457 3.489m-1.385 9.448c-.69-2.09-1.347-4.168-1.03-5.905 1.46.876 2.588 2.39 3.564 4.194m-1.314 2.158c-.853-4.466-4.322-11.305-8.747-16.432m5.244 14.67c-.614-3.624-.231-7.016-1.546-9.522 2.828 1.922 5.608 3.915 6.145 5.664" fill="none" stroke="#000" stroke-width=".25"/>
  <path class="fil11" d="M119.878 51.129c.228 3.604-14.73 1.018-16.195.246 1.647-.704 16.163-3.755 16.195-.246z" fill="#faf5d5" stroke-width=".265" stroke="#000"/>
  <path class="fil11" d="M119.428 55.319c-.713 3.54-14.49-2.828-15.706-3.954 1.773-.253 16.583.557 15.706 3.954z" fill="#faf5d5" stroke-width=".265" stroke="#000"/>
  <path class="fil11" d="M117.898 59.249c-1.604 3.235-13.264-6.482-14.148-7.884 1.779.214 15.875 4.83 14.148 7.884z" fill="#faf5d5" stroke-width=".265" stroke="#000"/>
  <path d="M109.152 59.41c.39 7.822-.677 11.235 2.643 12.92.648 1.203 2.08 2.714 2.48 1.603.86 1.012 2.463 2.379 2.489 1.17.36-.29.884 1.106 1.245.817.664-.6.95-2.47 1.49-2.834-.514-.667.559-1.175-.506-2.047 1.08.009 1.156-1.123.207-2.392 2.659-1.544-5.27-8.615-10.048-9.237z" class="fil9 str1" fill="#b18e32" stroke="#000" stroke-width=".25"/>
  <path class="fil8 str1" d="M112.608 71.569c-.837-2.394-.992-5.127-1.001-9.111 2.563 1.082 4.435 2.015 6.457 3.489m-1.385 9.448c-.69-2.09-1.347-4.168-1.03-5.905 1.46.876 2.588 2.39 3.564 4.194m-1.314 2.158c-.853-4.466-4.322-11.305-8.747-16.432m5.244 14.67c-.614-3.624-.231-7.016-1.546-9.522 2.828 1.922 5.608 3.915 6.145 5.664" fill="none" stroke="#000" stroke-width=".25"/>
  <path class="fil11" d="M114.348 61.579c-2.412 2.714-10.35-9.01-10.805-10.481 1.545.619 13.476 7.956 10.805 10.48z" fill="#faf5d5" stroke-width=".265" stroke="#000"/>
  <path class="fil11" d="M110.148 64.659c-3.195 1.726-6.643-12.006-6.568-13.545 1.24 1.11 9.942 12.086 6.568 13.545z" fill="#faf5d5" stroke-width=".265" stroke="#000"/>
  <path class="fil11" d="M102.528 66.179c-3.63-.102.25-13.72 1.084-15.013.518 1.58 2.567 15.437-1.084 15.013z" fill="#faf5d5" stroke-width=".265" stroke="#000"/>
  <path class="fil11" d="M98.688 65.419c-3.48-1.04 3.793-13.187 4.933-14.222.09 1.662-1.515 15.576-4.933 14.222z" fill="#faf5d5" stroke-width=".265" stroke="#000"/>
  <path class="fil11" d="M93.608 61.549c-2.684-2.8 8.6-9.877 10.004-10.312-.592 1.475-7.576 12.845-10.004 10.312z" fill="#faf5d5" stroke-width=".265" stroke="#000"/>
  <path class="fil11" d="M90.458 56.299c-.877-2.27 11.678-5.218 13.134-5.02-1.16 1.088-11.658 8.84-13.134 5.02z" fill="#faf5d5" stroke-width=".265" stroke="#000"/>
  <path class="fil11" d="M90.618 51.749c.15-2.446 11.797-1.105 12.937-.435-1.392.65-13.19 4.554-12.937.435z" fill="#faf5d5" stroke-width=".265" stroke="#000"/>
  <path class="fil11" d="M90.968 46.979c1.042-2.287 11.704 3.272 12.55 4.333-1.572.11-14.303-.481-12.55-4.333z" fill="#faf5d5" stroke-width=".265" stroke="#000"/>
  <path class="fil11" d="M92.078 42.359c1.893-2.007 10.898 7.546 11.4 8.947-1.53-.442-13.396-5.677-11.4-8.947z" fill="#faf5d5" stroke-width=".265" stroke="#000"/>
  <path class="fil11" d="M94.508 39.369c2.414-1.491 8.82 10.403 8.947 11.929-1.403-.847-11.802-9.211-8.947-11.93z" fill="#faf5d5" stroke-width=".265" stroke="#000"/>
  <path class="fil11" d="M100.688 36.599c2.825-.264 3.289 13.237 2.725 14.66-.881-1.381-6.49-13.491-2.725-14.66z" fill="#faf5d5" stroke-width=".265" stroke="#000"/>
  <path class="fil11" d="M106.558 36.639c2.708.848-2.082 13.479-3.152 14.575-.28-1.615-.772-14.952 3.152-14.575z" fill="#faf5d5" stroke-width=".265" stroke="#000"/>
  <path class="fil11" d="M110.218 37.919c2.397 1.52-5.5 12.48-6.816 13.262.148-1.632 3.123-14.641 6.816-13.262z" fill="#faf5d5" stroke-width=".265" stroke="#000"/>
  <path class="fil11" d="M113.428 40.109c1.92 2.089-8.542 10.632-10.017 11.046.566-1.538 6.807-13.334 10.017-11.046z" fill="#faf5d5" stroke-width=".265" stroke="#000"/>
  <path class="fil11" d="M115.958 43.049c1.315 2.515-11.004 8.059-12.535 8.077.945-1.34 10.026-11.118 12.535-8.077z" fill="#faf5d5" stroke-width=".265" stroke="#000"/>
  <path class="fil11" d="M117.658 47.539c.619 2.81-12.723 4.045-14.208 3.562 1.26-.96 12.57-7.261 14.208-3.562z" fill="#faf5d5" stroke-width=".265" stroke="#000"/>
  <path class="fil13" d="M105.978 51.469a2.529 2.529 0 11-5.057.047 2.529 2.529 0 015.057-.047z" fill="#cbc332"/>
  <path class="fil17 str1" d="M68.616 31.506c6.91-4.035 8.297-6.46 13.245-6.529 2.216-.389 8.028.68 6.809 1.69.024.536 1.924-.51 1.948.025-.02 1.035-1.272 1.453-1.39 2.287-1.018.017-1.397 3.862-3.04 3.53.87.97-.612 1.987-2.524 2.046-1.548 3.973-9.98-1.578-15.048-3.049z" fill="#8a6843" stroke="#000" stroke-width=".25"/>
  <path class="fil8 str1" d="M81.516 26.206c-3.435.975-3.806 5.435-8.215 5.126 2.434 1.386 8.28 2.423 10.7 2.406m3.19-6.265c-1.986.66-3.681 1.362-4.764 2.606 1.579.64 3.566-.14 5.149-.823m.4-.96c-3.85 1.893-10.551 3.254-17.166 2.73m14.203-4.31c-4.535 1.358-3.465 3.978-6.783 4.088 3.225 1.111 6.68 1.204 8.318.621" fill="none" stroke="#000" stroke-width=".25"/>
  <path class="fil17 str1" d="M63.498 28.629c-8.308-5.917-11.92-6.344-14.475-11.907-1.577-2.324-3.201-9.4-1.376-8.497.633-.28-1.576-1.936-.944-2.215 1.254-.465 2.383.756 3.445.496.529 1.143 5.342-.237 5.763 1.776.733-1.44 2.697-.242 3.725 1.892 5.55-.118 3.095 12.03 3.862 18.455z" fill="#8a6843" stroke="#000" stroke-width=".25"/>
  <path class="fil8 str1" d="M50.67 16.539c2.892 3.426 8.44 1.746 10.274 6.878.449-3.405-1.23-10.505-2.46-13.234m-9.13-.66c1.788 1.936 3.48 3.523 5.518 4.163-.02-2.087-1.953-3.968-3.566-5.436m-1.355 0c4.204 3.463 9.192 10.4 11.87 18.128M49.535 12.344c3.903 4.489 6.517 2.046 8.309 5.747-.277-4.171-1.894-8.123-3.415-9.7" fill="none" stroke="#000" stroke-width=".25"/>
  <path class="fil17 str1" d="M66.368 28.629c10.096-5.917 15.356-6.86 15.299-12.422 1.145-1.688 2.159-4.63.41-4.393.747-1.838 1.453-4.904-.168-4.104-.632-.28.856-1.936.223-2.215-1.253-.465-3.927.447-4.783-.02-.53 1.144-1.943.073-2.364 2.086-.733-1.44-2.285-.757-3.313 1.377-3.88-2.458-7.778 12.928-5.304 19.69z" fill="#8a6843" stroke="#000" stroke-width=".25"/>
  <path class="fil8 str1" d="M80.038 15.819c-2.594 2.762-6.11 4.854-11.383 7.616-.335-4.143-.391-7.268.167-10.964m13.476-4.688c-2.294 2.356-4.595 4.662-7.114 5.44.153-2.538 1.38-5.077 3.096-7.616m3.767.25C76.717 10.072 70.05 19.39 66.31 28.793m15.82-17.075c-4.38 3.315-9.137 5.149-11.551 8.62.595-5.073 1.317-10.132 3.264-12.051" fill="none" stroke="#000" stroke-width=".25"/>
  <path class="fil1 str1" d="M71.818 46.999c1.378 2.606 19.007-6.99 17.595-10.323-.947-3.642-18.308 7.579-17.595 10.323z" fill="#febb6a" stroke="#000" stroke-width=".25"/>
  <path class="fil1 str1" d="M70.308 50.689c1.378 2.606 19.006-5.148 17.595-8.481-.947-3.642-18.31 5.737-17.595 8.48z" fill="#febb6a" stroke="#000" stroke-width=".25"/>
  <path class="fil1 str1" d="M68.798 49.519C70.176 52.126 82.78 38.007 81.2 30.486c-7.312.88-13.116 16.289-12.403 19.033z" stroke-width=".25" stroke="#000" fill="#febb6a"/>
  <path class="fil1 str1" d="M69.798 49.349c1.978 2.349 8.602-18.78 3.358-22.216-5.302 2.22-4.071 19.472-3.358 22.216z" fill="#febb6a" stroke="#000" stroke-width=".25"/>
  <path class="fil1 str1" d="M70.988 43.949c1.396-.387 1.53-23.088-.6-22.721-3.891.672-2.332 23.227.6 22.72z" fill="#febb6a" stroke="#000" stroke-width=".25"/>
  <path class="fil1 str1" d="M68.128 43.509c1.639-.386-1.314-23.087-4.086-22.72-3.003 1.296 1.218 23.226 4.086 22.72z" fill="#febb6a" stroke="#000" stroke-width=".25"/>
  <path class="fil1 str1" d="M66.178 41.959c1.468-.824-6.3-21.202-10.828-20.71-2.528 4.31 8.21 21.988 10.828 20.71z" fill="#febb6a" stroke="#000" stroke-width=".25"/>
  <path class="fil1 str1" d="M66.438 48.509c1.638-.386-1.315-23.088-4.086-22.721-3.004 1.297 1.217 23.227 4.086 22.72z" fill="#febb6a" stroke="#000" stroke-width=".25"/>
  <path class="fil1 str1" d="M67.258 48.749c.74-3.153-14.544-24.32-23.866-22.316 3.45 5.916 21.685 22.434 23.866 22.316z" fill="#febb6a" stroke="#000" stroke-width=".25"/>
  <path class="fil1 str1" d="M67.518 50.349c.127-2.744-16.43-18.775-24.937-17.315 2.562 5.916 22.409 17.433 24.937 17.315z" fill="#febb6a" stroke="#000" stroke-width=".25"/>
  <path class="fil1 str1" d="M68.238 49.499c.126-2.747-21.7-9.86-30.206-8.16 2.562 5.844 27.678 8.349 30.206 8.16z" fill="#febb6a" stroke="#000" stroke-width=".25"/>
  <path class="fil1 str1" d="M69.578 50.659c.96-4.414-18.365-7.328-27.705-3.962 2.562 5.843 25.177 4.15 27.705 3.962z" fill="#febb6a" stroke="#000" stroke-width=".25"/>
  <path class="fil9" d="M93.958 13.819c-3.633-3.974-5.444-4.566-6.157-7.77-.56-1.39-.63-5.298.212-4.636.355-.083-.602-1.184-.246-1.268.695-.12 1.143.642 1.718.612.148.659 2.773.416 2.772 1.524.533-.688 1.413.145 1.71 1.378 2.869.5.292 6.682-.01 10.16z" fill="#b18e32" stroke="#000" stroke-width=".265"/>
  <path class="fil8 str1" d="M88.794 7.314c1.22 2.42 4.577 2.134 4.988 5.436.673-1.975.593-6.432.23-8.222m-5.103-1.574c.777 1.388 1.543 2.554 2.621 3.2.246-1.249-.62-2.622-1.356-3.707m-.77-.176c1.962 2.611 3.94 7.4 4.512 12.36m-5.252-9.969c1.664 3.186 3.45 2.065 4.011 4.507.356-2.527-.077-5.096-.745-6.235" clip-rule="evenodd" fill="none" stroke="#000" stroke-width=".218" image-rendering="optimizeQuality" shape-rendering="geometricPrecision" text-rendering="geometricPrecision"/>
  <path class="fil8" d="M88.668 6.119c1.117 2.106 4.153 1.78 4.54 4.682.6-1.758.505-5.685.167-7.255M88.75 2.273c.709 1.206 1.408 2.217 2.387 2.762.216-1.107-.575-2.298-1.246-3.24m-.697-.136c1.788 2.259 3.603 6.436 4.145 10.797m-4.802-8.672c1.52 2.77 3.13 1.743 3.652 3.883.308-2.235-.096-4.491-.708-5.48" fill="none"/>
  <path class="fil9" d="M95.678 14.849c5-1.854 7.566-1.79 7.642-4.47.586-.7 1.13-2.014.279-2.072.396-.81.795-2.215-.005-1.99-.301-.195.45-.846.149-1.042-.598-.347-1.911-.171-2.317-.478-.278.497-.943-.157-1.184.77-.328-.764-1.093-.588-1.63.337-1.835-1.563-4.008 5.45-2.934 8.945z" fill="#b18e32" stroke="#000" stroke-width=".291"/>
  <path class="fil8 str1" d="M98.221 7.305c-1.238 1.865.404 4.14-1.821 5.788 1.724-.331 4.93-2.22 6.074-3.215m-1.035-4.282c-.677 1.123-1.197 2.148-1.205 3.182 1.012-.339 1.64-1.52 2.114-2.49m-.2-.62c-1.061 2.47-3.695 5.848-7.057 8.295m5.002-7.84c-1.604 2.494-.027 3.305-1.561 4.71 1.988-.785 3.67-2.15 4.212-3.094" clip-rule="evenodd" fill="none" stroke="#000" stroke-width=".25" image-rendering="optimizeQuality" shape-rendering="geometricPrecision" text-rendering="geometricPrecision"/>
  <path class="fil8" d="M102.538 10.029c-1.308 1.074-3.05 1.734-5.655 2.545-.086-2.025-.055-3.533.283-5.255m6.616-.931c-1.155.908-2.313 1.79-3.548 1.918.12-1.206.763-2.306 1.64-3.358m1.822.49c-2.66 1.503-6.063 5.328-8.048 9.48m7.98-6.655c-2.183 1.164-4.522 1.579-5.756 3.01.383-2.38.826-4.741 1.805-5.473" fill="none"/>
  <path class="fil11" d="M109.458 21.659c.409 3.29-13.444 1.754-14.83 1.128 1.47-.737 14.605-4.342 14.83-1.128z" fill="#faf5d5" stroke-width=".265" stroke="#000"/>
  <path class="fil11" d="M109.268 25.519c-.456 3.284-13.44-1.786-14.616-2.75 1.61-.331 15.23-.413 14.616 2.75z" fill="#faf5d5" stroke-width=".265" stroke="#000"/>
  <path class="fil11" d="M108.088 29.209c-1.291 3.055-12.52-5.203-13.407-6.438 1.64.097 14.819 3.542 13.407 6.438z" fill="#faf5d5" stroke-width=".265" stroke="#000"/>
  <path class="fil11" d="M104.968 31.539c-2.06 2.622-9.987-7.682-10.487-9.005 1.45.482 12.795 6.542 10.487 9.005z" fill="#faf5d5" stroke-width=".265" stroke="#000"/>
  <path class="fil11" d="M101.288 34.599c-2.831 1.76-6.757-10.635-6.774-12.05 1.198.95 9.786 10.525 6.774 12.05z" fill="#faf5d5" stroke-width=".265" stroke="#000"/>
  <path class="fil11" d="M94.388 36.419c-3.332.108-.535-12.588.157-13.821.564 1.42 3.214 14.006-.157 13.82z" fill="#faf5d5" stroke-width=".265" stroke="#000"/>
  <path class="fil11" d="M90.818 35.929c-3.246-.758 2.742-12.297 3.73-13.31.176 1.519-.522 14.36-3.73 13.31z" fill="#faf5d5" stroke-width=".265" stroke="#000"/>
  <path class="fil11" d="M85.958 32.669c-2.616-2.416 7.332-9.532 8.595-10.01-.46 1.385-6.23 12.196-8.595 10.01z" fill="#faf5d5" stroke-width=".265" stroke="#000"/>
  <path class="fil11" d="M82.768 28.029c-.93-2.03 10.413-5.432 11.759-5.331-1.002 1.06-10.193 8.75-11.76 5.33z" fill="#faf5d5" stroke-width=".265" stroke="#000"/>
  <path class="fil11" d="M82.658 23.849c0-2.25 10.75-1.67 11.834-1.12-1.24.674-11.836 4.909-11.834 1.12z" fill="#faf5d5" stroke-width=".265" stroke="#000"/>
  <path class="fil11" d="M82.718 19.469c.827-2.155 10.91 2.347 11.744 3.272-1.434.189-13.137.356-11.744-3.272z" fill="#faf5d5" stroke-width=".265" stroke="#000"/>
  <path class="fil11" d="M83.488 15.169c1.622-1.944 10.408 6.31 10.947 7.567-1.427-.321-12.595-4.458-10.947-7.567z" fill="#faf5d5" stroke-width=".265" stroke="#000"/>
  <path class="fil11" d="M85.538 12.289c2.13-1.5 8.664 9.044 8.866 10.436-1.333-.7-11.332-7.785-8.866-10.436z" fill="#faf5d5" stroke-width=".265" stroke="#000"/>
  <path class="fil11" d="M91.058 9.399c2.576-.4 3.752 11.949 3.315 13.286-.885-1.217-6.7-12.004-3.315-13.286z" fill="#faf5d5" stroke-width=".265" stroke="#000"/>
  <path class="fil11" d="M96.428 9.109c2.53.627-1.157 12.47-2.077 13.535-.345-1.465-1.541-13.661 2.077-13.535z" fill="#faf5d5" stroke-width=".265" stroke="#000"/>
  <path class="fil11" d="M99.858 10.089c2.28 1.26-4.346 11.746-5.51 12.536.046-1.504 2.048-13.594 5.51-12.536z" fill="#faf5d5" stroke-width=".265" stroke="#000"/>
  <path class="fil11" d="M102.928 11.909c1.877 1.807-7.238 10.22-8.566 10.683.433-1.441 5.496-12.601 8.566-10.683z" fill="#faf5d5" stroke-width=".265" stroke="#000"/>
  <path class="fil11" d="M105.408 14.469c1.345 2.232-9.637 8-11.04 8.102.792-1.28 8.57-10.75 11.04-8.102z" fill="#faf5d5" stroke-width=".265" stroke="#000"/>
  <path class="fil11" d="M107.218 18.489c.724 2.542-11.436 4.416-12.824 4.057 1.1-.951 11.117-7.356 12.824-4.057z" fill="#faf5d5" stroke-width=".265" stroke="#000"/>
  <path class="fil13" d="M96.728 22.739a2.322 2.322 0 11-4.633.324 2.322 2.322 0 014.633-.324z" fill="#cbc332"/>
  <path class="fil11" d="M131.158 29.079c.178 3.31-13.534.81-14.873.089 1.518-.632 14.873-3.311 14.873-.09z" fill="#faf5d5" stroke-width=".265" stroke="#000"/>
  <path class="fil11" d="M130.698 32.919c-.685 3.245-13.282-2.72-14.39-3.763 1.63-.218 15.224.65 14.39 3.763z" fill="#faf5d5" stroke-width=".265" stroke="#000"/>
  <path class="fil11" d="M129.258 36.519c-1.501 2.957-12.126-6.064-12.925-7.36 1.63.213 14.536 4.57 12.925 7.36z" fill="#faf5d5" stroke-width=".265" stroke="#000"/>
  <path class="fil11" d="M125.988 38.629c-2.238 2.472-9.427-8.361-9.833-9.715 1.413.582 12.307 7.419 9.833 9.715z" fill="#faf5d5" stroke-width=".265" stroke="#000"/>
  <path class="fil11" d="M122.098 41.419c-2.947 1.558-5.998-11.08-5.916-12.492 1.129 1.03 9.027 11.18 5.916 12.492z" fill="#faf5d5" stroke-width=".265" stroke="#000"/>
  <path class="fil11" d="M115.088 42.749c-3.331-.125.346-12.595 1.122-13.777.463 1.457 2.228 14.197-1.122 13.777z" fill="#faf5d5" stroke-width=".265" stroke="#000"/>
  <path class="fil11" d="M111.568 42.019c-3.186-.983 3.594-12.076 4.65-13.017.069 1.527-1.523 14.29-4.65 13.017z" fill="#faf5d5" stroke-width=".265" stroke="#000"/>
  <path class="fil11" d="M106.938 38.429c-2.441-2.593 7.98-8.997 9.272-9.385-.555 1.349-7.064 11.73-9.272 9.385z" fill="#faf5d5" stroke-width=".265" stroke="#000"/>
  <path class="fil11" d="M104.088 33.579c-.786-2.09 10.767-4.692 12.102-4.497-1.074.988-10.78 8.018-12.102 4.497z" fill="#faf5d5" stroke-width=".265" stroke="#000"/>
  <path class="fil11" d="M104.278 29.389c.159-2.244 10.842-.915 11.883-.29-1.284.585-12.15 4.07-11.883.29z" fill="#faf5d5" stroke-width=".265" stroke="#000"/>
  <path class="fil11" d="M104.638 25.029c.976-2.092 10.719 3.103 11.487 4.084-1.444.089-13.13-.562-11.487-4.084z" fill="#faf5d5" stroke-width=".265" stroke="#000"/>
  <path class="fil11" d="M105.698 20.789c1.754-1.827 9.943 7.02 10.393 8.312-1.401-.42-12.254-5.326-10.393-8.312z" fill="#faf5d5" stroke-width=".265" stroke="#000"/>
  <path class="fil11" d="M107.948 18.059c2.23-1.348 8.012 9.626 8.116 11.029-1.281-.79-10.76-8.557-8.116-11.03z" fill="#faf5d5" stroke-width=".265" stroke="#000"/>
  <path class="fil11" d="M113.658 15.569c2.597-.22 2.908 12.182 2.379 13.485-.798-1.276-5.846-12.443-2.38-13.485z" fill="#faf5d5" stroke-width=".265" stroke="#000"/>
  <path class="fil11" d="M119.038 15.659c2.479.802-2.026 12.359-3.017 13.357-.243-1.486-.584-13.736 3.017-13.357z" fill="#faf5d5" stroke-width=".265" stroke="#000"/>
  <path class="fil11" d="M122.388 16.869c2.188 1.416-5.155 11.414-6.371 12.12.15-1.497 2.992-13.417 6.37-12.12z" fill="#faf5d5" stroke-width=".265" stroke="#000"/>
  <path class="fil11" d="M125.318 18.899c1.747 1.935-7.933 9.69-9.291 10.059.533-1.407 6.363-12.187 9.29-10.06z" fill="#faf5d5" stroke-width=".265" stroke="#000"/>
  <path class="fil11" d="M127.618 21.619c1.186 2.32-10.172 7.308-11.578 7.31.879-1.22 9.3-10.123 11.578-7.31z" fill="#faf5d5" stroke-width=".265" stroke="#000"/>
  <path class="fil11" d="M129.138 25.759c.546 2.586-11.716 3.607-13.075 3.15 1.165-.87 11.603-6.56 13.075-3.15z" fill="#faf5d5" stroke-width=".265" stroke="#000"/>
  <path class="fil13" d="M118.388 29.269a2.323 2.323 0 11-4.645-.001 2.323 2.323 0 014.645 0z" fill="#cbc332"/>
  <path class="fil2 str1" d="M72.318 52.989c.484 1.365 23.138-.118 22.62-2.216-.947-3.834-23.334-.673-22.62 2.216zm-1.07 2.59c.485 3.006 23.049 6.398 22.53 2.607-1.271-3.022-23.402-5.1-22.53-2.607z" fill="#f7a166" stroke="#000" stroke-width=".25"/>
  <path class="fil4 str1" d="M81.028 84.519c4.41-6.91-11.1-24.763-11.351-32.16-1.686 13.65 8.673 31.916 11.35 32.16z" fill="#f7a166" stroke="#000" stroke-width=".25"/>
  <path class="str1" d="M88.088 79.429c2.372-10.71-17.335-24.57-18.674-29.66-1.177 13.397 16.44 30.176 18.674 29.66z" fill="#f7a166" stroke="#000" stroke-width=".25"/>
  <path class="fil2 str1" d="M70.028 53.259c-1.171 3.007 19.8 18.504 22.12 16.56 2.109-4.858-19.287-16.81-22.12-16.56zM78.57 54.065c.142 1.814 22.244 3.555 22.244.804 0-5.03-22.244-4.593-22.244-.804z" fill="#f7a166" stroke="#000" stroke-width=".25"/>
  <path class="fil1 str1" d="M70.638 51.019c1.378 2.606 24.03-3.808 22.62-7.141-.947-3.642-23.334 4.397-22.62 7.14z" fill="#febb6a" stroke="#000" stroke-width=".25"/>
  <path class="str1" d="M67.968 51.819c-1.72-1.29-23.723-3.132-30.652 1.396 5.219 4.503 31.076-1.207 30.652-1.396z" fill="#eb974f" stroke="#000" stroke-width=".25"/>
  <path class="fil32 str1" d="M69.128 50.389c-2.218-1.456-26.53 4.089-29.402 9.969 6.606 2.324 30.25-10.447 29.402-9.97z" fill="#e09248" stroke="#000" stroke-width=".25"/>
  <path class="fil32 str1" d="M69.668 50.479c-2.376-1.666-24.09 7.642-26.277 14.434 6.813 3.358 27.183-14.622 26.277-14.434z" stroke-width=".25" stroke="#000" fill="#e09248"/>
  <path class="fil32 str1" d="M69.308 51.199c-2.376-1.667-17.66 14.785-18.508 19.434 8.688 1.84 19.414-19.623 18.508-19.434z" fill="#e09248" stroke="#000" stroke-width=".25"/>
  <path class="str1" d="M61.568 83.719c5.128-.787 7.284-22.943 7.045-30.374-7.312.88-9.456 29.684-7.045 30.374z" fill="#f7a166" stroke="#000" stroke-width=".25"/>
  <path class="fil32 str1" d="M68.058 52.179c-4.072 4.495-10.247 16.75-10.738 26.847 8.867-3.385 6.942-15.68 10.738-26.847z" fill="#e09248" stroke="#000" stroke-width=".25"/>
  <path class="str1" d="M68.888 87.559c2.628-.965-.306-26.694-.545-34.125-4.797 3.049-3.202 34.68.545 34.125z" fill="#f7a166" stroke="#000" stroke-width=".25"/>
  <path class="str1" d="M70.498 82.289c5.348-3.941 1.192-21.92-1.35-30.732-3.561 13.472-1.686 30.488 1.35 30.732z" fill="#f7a166" stroke="#000" stroke-width=".25"/>
  <path class="fil4 str1" d="M77.098 84.609c5.348-3.941-6.31-22.454-7.065-31.446-1.685 13.65 4.387 31.203 7.065 31.446z" fill="#f7a166" stroke="#000" stroke-width=".25"/>
  <path class="fil6 str1" d="M76.138 57.499c-.536-2.851-4.486-.938-9.246-4.69-3.05 1.984 5 15.737 9.246 4.69z" fill="#efe99f" stroke="#000" stroke-width=".25"/>
  <path class="fil6 str1" d="M80.078 45.859c-2.558 4.032-6.15 2.656-10.162 8.046 2.682 1.179 13.085-.11 10.162-8.046zm-5.579-5.65c-3.847.64-.486 4.51-7.241 8.54-1.467-4.144-1.37-13.12 7.24-8.54z" fill="#efe99f" stroke="#000" stroke-width=".25"/>
  <path class="str1" d="M66.393 51.409c.503 2.398 2.654 3.819 4.025 3.819 1.372 0 2.08-1.957 1.578-4.355-.503-2.4-2.032-4.355-3.404-4.355-1.371 0-2.702 2.492-2.2 4.89z" fill="#d8cd3f" stroke="#000" stroke-width=".269"/>
  <path class="fil36 str1" d="M38.962 88.079c1.515-3.765-4.417-28.358-13.217-29.956-.803 12.31 10.686 27.293 13.216 29.956zm.598-6.99c1.597-5.972 9.732-18.653 3.752-24.12-3.628 5.155-5.032 20.465-3.752 24.12z" stroke-width=".25" stroke="#000" fill="#cb6f3e"/>
  <path class="fil36 str1" d="M39.766 82.849c.06-7.625-1.807-24.713-6.785-27.142-4.055 5.806 4.047 24.433 6.785 27.142z" fill="#cb6f3e" stroke="#000" stroke-width=".25"/>
  <path class="fil50 str1" d="M112.678 111.139c-3.635-4.935-9.767-9.888-10.425-10.665.835 4.996 2.039 8.276 3.295 10.665z" fill="#faf5d5" stroke="#000" stroke-width=".265"/>
  <path class="fil52 str1" d="M88.448 98.579c-11.672-.008-16.708-1.838-19.373 2.936-1.82.866-4.137 2.869-2.5 3.542-1.547 1.194-3.656 3.456-1.856 3.584.415.555-1.69 1.223-1.274 1.778.226.269.585.506 1 .725h15.83c3.606-3.095 7.512-8.523 8.173-12.565z" fill="#b18e32" stroke="#000" stroke-width=".25"/>
  <path class="fil8 str1" d="M70.308 102.669c3.606-1.057 7.685-1.082 13.62-.798-1.728 3.703-3.204 6.396-5.494 9.269m-14.012-2.75c3.145-.86 6.273-1.675 8.845-1.077-1.004 1.528-2.507 2.768-4.311 3.835m-5.255-.99c6.692-.924 17.04-5.534 24.88-11.683m-22.094 6.644c5.427-.634 10.462.183 14.256-1.57-2.252 3.033-4.563 6.022-6.69 7.599" fill="none" stroke="#000" stroke-width=".25"/>
  <path class="fil50 str1" d="M109.098 92.689c.265 2.319 16.042-8.907 14.606-15.207-1.813-4.154-15.268 11.65-14.606 15.207zm-3.46.05c4.873-5.407 14.363-18.795 12.346-23.682-6.573 1.578-12.585 20.013-12.346 23.682zm5.12 10.25c2.216 2.163 17.286-8.514 15.572-12.982-2.22-2.15-18.528 8.91-15.572 12.982zm-28.59-17.64c.03 5.916 19.463 8.35 23.323 15.597.57-3.51-14.254-16.731-23.323-15.597z" fill="#faf5d5" stroke="#000" stroke-width=".265"/>
  <path class="fil50 str1" d="M103.778 98.919c1.712-3.476-2.184-27.31-10.447-29.458-1.641 11.662 8.228 26.742 10.447 29.458zm.66 2.79c-.337 2.31 21.114 2.315 23.24-4.126-1.64-3.664-22.97.519-23.24 4.126z" fill="#faf5d5" stroke="#000" stroke-width=".265"/>
  <path class="fil50 str1" d="M110.158 98.479c-.337 2.31 17.786-4.51 18.009-10.966-.69-4.48-17.74 7.359-18.01 10.966zm-4.85 4.87c-.285 1.957 17.91 5.303 19.13 1.975-.582-3.794-18.901-5.03-19.13-1.975zm4.1-10.74c3.215-2.507 10.583-9.687 5.849-18.162-3.505 5.7-6.055 7.208-5.85 18.162z" fill="#faf5d5" stroke="#000" stroke-width=".265"/>
  <path class="fil50 str1" d="M105.818 95.379c1.86 2.646 8.825-11.037 4.17-18.031-.025 4.376-8.104 10.644-4.17 18.03z" fill="#faf5d5" stroke="#000" stroke-width=".265"/>
  <path class="fil50 str1" d="M107.708 97.009c-.336 2.31 14.215-4.776 12.763-14.565-6.506 1.24-12.493 10.959-12.763 14.565zm-2.86-4.7c1.945-5.57 10.593-17.063 5.29-22.693-3.821 4.649-6.248 19.123-5.29 22.693z" fill="#faf5d5" stroke="#000" stroke-width=".265"/>
  <path class="fil50 str1" d="M104.918 94.009c.602-7.254.04-23.654-4.524-26.32-4.273 5.237 2.11 23.547 4.524 26.32zm-2.38 17.13c2.8-3.745 4.069-11.54 4.965-15.298-9.231 4.657-8.911 11.316-10.346 15.298z" fill="#faf5d5" stroke="#000" stroke-width=".265"/>
  <path class="fil50 str1" d="M91.088 110.989l1.884.155h4.339c4.142-2.64 8.714-8.724 8.813-12.258-.71-3.141-9.074 4.622-13.094 9.423-.928 1.108-1.624 2.058-1.942 2.68z" fill="#faf5d5" stroke="#000" stroke-width=".265"/>
  <path class="fil50 str1" d="M104.698 111.139c2.308-3.695-.65-13.85-.345-14.715-6.358 12.463-4.203 11.034-5.806 14.715z" fill="#faf5d5" stroke="#000" stroke-width=".265"/>
  <path class="fil50 str1" d="M108.008 111.139c-.84-4.803-5.434-4.33-6.037-11.346-1.26 11.83 2.017 7.486.294 11.346z" fill="#faf5d5" stroke="#000" stroke-width=".265"/>
  <path class="fil50 str1" d="M86.338 110.809a7.36 7.36 0 001.138.336h3.074c6.6-1.262 12.958-9.976 15.688-12.571-2.782-.532-19.745 5.028-19.9 12.235z" fill="#faf5d5" stroke="#000" stroke-width=".265"/>
  <path class="fil50 str1" d="M76.198 103.139c.03 5.916 22.966 2.4 26.02-.667 1.034-3.772-24.505-2.94-26.02.667z" fill="#faf5d5" stroke="#000" stroke-width=".265"/>
  <path class="fil50 str1" d="M74.548 109.799c1.344 3.847 27.768-2.48 28.72-6.701-1.13-3.743-29.181.859-28.72 6.7z" fill="#faf5d5" stroke="#000" stroke-width=".265"/>
  <path class="fil50 str1" d="M83.218 86.589C81.04 90.577 98 103.488 101.193 102.56c2.096-2.151-15.273-16.704-17.975-15.972z" fill="#faf5d5" stroke="#000" stroke-width=".265"/>
  <path class="fil50 str1" d="M75.648 90.769c.03 5.916 23.32 13.47 26.374 10.402 1.034-3.771-23.756-12.94-26.374-10.402z" fill="#faf5d5" stroke="#000" stroke-width=".265"/>
  <path class="fil50 str1" d="M78.248 95.599c.03 5.916 24.042 9.087 27.096 6.02 1.034-3.772-24.478-8.557-27.096-6.02z" fill="#faf5d5" stroke="#000" stroke-width=".265"/>
  <path class="fil50 str1" d="M87.578 93.439c.15 5.63 12.73 8.734 15.623 7.823-1.004-3.14-7.96-9.657-14.028-8.87 1.013 2.915-1.268.73-1.595 1.047zm20.4 2.74c-.337 2.31 17.786-4.508 18.009-10.966-.69-4.48-17.74 7.36-18.01 10.966zm-3.449-1.097c2.357-6.887 5.826-22.926 2.05-26.628-5.423 4.033-3.711 23.348-2.05 26.628z" fill="#faf5d5" stroke="#000" stroke-width=".265"/>
  <path class="fil52 str1" d="M15.18 96.589c-3.168-6.781-2.894-9.638-6.749-11.881-1.525-1.338-6.698-2.911-6.309-1.438-.32.486-1.226-1.321-1.546-.835C.01 83.4.76 84.34.383 85.164c.791.464-1.073 4.19.405 4.606-1.229.516-.635 2.11.835 3.008-1.016 4.36 8.741 2.939 13.557 3.81z" fill="#b18e32" stroke="#000" stroke-width=".25"/>
  <path class="fil8 str1" d="M8.01 85.999c2.153 2.417-.065 6.709 3.578 8.366-2.695.21-7.878-1.407-9.773-2.49M2.83 84.67c1.192 1.486 2.13 2.883 2.283 4.513-1.603-.104-2.727-1.702-3.588-3.032m.226-1.066c1.963 3.45 6.47 7.664 11.97 10.095M4.97 84.929c2.803 3.257.487 5.21 3.036 6.775-3.163-.393-5.934-1.831-6.894-3.093" fill="none" stroke="#000" stroke-width=".25"/>
  <path class="fil50 str1" d="M86.098 78.889c1.3 10.098 37.768 40.617 18.197 19.71 2.259-.16 8.098-5.634 6.47-6.914-.596-.47-6.887 2.897-7.404 1.99-3.616-6.335-13.142-16.001-17.263-14.786z" fill="#faf5d5" stroke="#000" stroke-width=".265"/>
  <path class="fil50 str1" d="M102.714 99.236c-1.166 1.597 13.354 13.06 15.988 10.688 1.26-3.626-14.358-13.28-15.988-10.688z" fill="#faf5d5" stroke="#000" stroke-width=".265"/>
  <path class="fil52 str1" d="M107.168 103.579c-.156 2.078-1.424 3.678-2.833 3.572-1.41-.105-2.425-1.876-2.27-3.954.156-2.078 1.424-3.677 2.833-3.572 1.409.106 2.425 1.876 2.27 3.954z" fill="#b18e32" stroke="#000" stroke-width=".25"/>
  <path class="fil50 str1" d="M115.166 99.079c-1.85-1-6.502 2.079-11.965 2.183-3.487-1.761 6.858-12.12 11.965-2.183z" fill="#faf5d5" stroke="#000" stroke-width=".265"/>
  <path class="fil52 str1" d="M89.588 100.419c-5.401-7.977-5.633-11.665-10.988-13.734-2.21-1.391-9.104-2.343-8.311-.55-.308.684-1.826-1.43-2.135-.747-.525 1.343.62 2.384.309 3.508 1.1.43-.515 5.545 1.449 5.773-1.46.905-.38 2.812 1.67 3.655-.407 5.748 11.708 1.963 18.006 2.095z" stroke-width=".25" stroke="#000" fill="#b18e32"/>
  <path class="fil8 str1" d="M78.328 88.409c3.228 2.636 1.279 8.542 6.246 9.91-3.383.813-10.3-.191-12.928-1.184m-.171-9.365c1.816 1.648 3.293 3.233 3.817 5.274-2.058.193-3.812-1.611-5.176-3.127m.07-1.4c3.197 3.988 9.78 8.43 17.263 10.405m-13.2-11.256c4.224 3.57 1.676 6.523 5.233 7.996-4.1.14-7.914-1.124-9.391-2.533" fill="none" stroke="#000" stroke-width=".25"/>
  <path class="fil50 str1" d="M46.56 91.779c2.485 2.085 17.393-10.246 15.253-14.78-2.487-2.071-18.658 10.757-15.252 14.78zm-31.24-16.2c.494 6.178 20.986 7.2 25.585 14.47.322-3.712-16.199-16.364-25.585-14.47z" fill="#faf5d5" stroke="#000" stroke-width=".265"/>
  <path class="fil50 str1" d="M18.92 68.529c2.147 10.447 42.63 39.477 20.55 19.168 2.348-.345 8.02-6.52 6.22-7.73-.661-.445-6.97 3.565-7.58 2.66-4.274-6.337-14.98-15.69-19.19-14.098z" fill="#faf5d5" stroke="#000" stroke-width=".265"/>
  <path class="fil50 str1" d="M41.425 90.939c-.17 2.44 22.239.767 23.956-6.128-2-3.7-23.955 2.339-23.955 6.128z" fill="#faf5d5" stroke="#000" stroke-width=".265"/>
  <path class="fil50 str1" d="M44.588 87.258c-.17 2.44 18.228-6.101 17.956-12.864-1.072-4.627-17.956 9.075-17.956 12.864zm-.012 6.141c-.987 2.238 19.658 12.266 22.217 8.704.557-4.716-20.935-12.27-22.217-8.704z" fill="#faf5d5" stroke="#000" stroke-width=".265"/>
  <path class="fil50 str1" d="M40.9 93.009c-.171 2.44 22.65 4.887 23.852.67-1.072-4.627-23.852-4.46-23.852-.67z" fill="#faf5d5" stroke="#000" stroke-width=".265"/>
  <path class="fil50 str1" d="M60.258 94.499c-1.196-1.85-12.648-3.64-17.72-6.293-2.317-3.373 18.027-5.407 17.72 6.293zm-10.204 16.33l5.48.05c1.24-6.142-13.79-16.336-14.925-17.49 2.905 11.855 7.144 14.073 9.445 17.44z" fill="#faf5d5" stroke="#000" stroke-width=".265"/>
  <path class="fil50 str1" d="M42.066 93.969c-.992 2.236 20.836 15.605 23.402 12.049.567-4.715-22.112-15.611-23.402-12.05z" fill="#faf5d5" stroke="#000" stroke-width=".265"/>
  <path class="fil36 str1" d="M47.466 80.819c3.163-2.871 10.299-10.948 4.69-19.43-3.216 6.227-5.761 8.003-4.69 19.43z" fill="#cb6f3e" stroke="#000" stroke-width=".25"/>
  <path class="fil36 str1" d="M43.043 81.089c2.152 2.618 8.358-12.221 2.948-19.162.315 4.573-7.635 11.752-2.948 19.162z" fill="#cb6f3e" stroke="#000" stroke-width=".25"/>
  <path class="str1" d="M42.91 85.779c-.171 2.44 14.476-6.101 12.194-16.214-6.7 1.805-12.194 12.425-12.194 16.214z" fill="#cb6f3e" stroke="#000" stroke-width=".25"/>
  <path class="fil50 str1" d="M9.811 107.889c1.705 3.914 27.475-9.853 28.14-14.338-1.473-3.823-29.078 8.27-28.14 14.338z" fill="#faf5d5" stroke="#000" stroke-width=".265"/>
  <path class="fil50 str1" d="M29.556 110.829l4.76.257c3.521-3.355 4.335-13.205 5.056-17.696-9.764 5.88-8.306 13.248-9.816 17.439z" fill="#faf5d5" stroke="#000" stroke-width=".265"/>
  <path class="fil50 str1" d="M23.48 110.829l5.994.05c4.27-3.354 8.946-11.66 8.765-16.15-.986-3.76-9.117 6.452-12.94 12.66-.883 1.434-1.537 2.654-1.82 3.44z" fill="#faf5d5" stroke="#000" stroke-width=".265"/>
  <path class="fil50 str1" d="M34.397 111.039l5.996.05c3.136-3.354-1.286-15.058-1.02-16.047-5.748 13.708-3.465 11.806-4.976 15.997z" fill="#faf5d5" stroke="#000" stroke-width=".265"/>
  <path class="fil50 str1" d="M41.917 110.939l6.098-.052c-1.087-5.415-6.607-8.261-7.818-15.74-.391 12.473 3.23 11.6 1.72 15.792zm-23.797-3.19c8.538 2.574 16.62-10.791 19.832-14.338-2.948-.34-20.234 6.797-19.832 14.338z" fill="#faf5d5" stroke="#000" stroke-width=".265"/>
  <path class="fil50 str1" d="M10.48 94.639c.493 6.178 24.179.712 27.129-2.731.786-4.021-25.83-1.154-27.13 2.73z" fill="#faf5d5" stroke="#000" stroke-width=".265"/>
  <path class="fil50 str1" d="M9.275 101.719c1.705 3.914 28.815-4.761 29.48-9.246-1.473-3.823-30.418 3.179-29.48 9.246z" fill="#faf5d5" stroke="#000" stroke-width=".265"/>
  <path class="fil50 str1" d="M8.934 81.759c.494 6.178 25.415 12.248 28.366 8.805.786-4.021-25.83-11.66-28.366-8.805z" fill="#faf5d5" stroke="#000" stroke-width=".265"/>
  <path class="fil50 str1" d="M12.024 86.609c.494 6.178 25.828 7.613 28.778 4.17.786-4.021-26.242-7.025-28.778-4.17z" fill="#faf5d5" stroke="#000" stroke-width=".265"/>
  <path class="fil50 str1" d="M21.993 83.424c.597 5.87 13.982 8.128 16.932 6.951-1.294-3.202-9.07-9.466-15.347-8.168 1.286 2.964-1.268.86-1.585 1.217zm29.225 15.485c-2.01.9-6.63-2.68-12.329-3.216-3.78 1.567 6.217 13.196 12.329 3.216zm-1.561-20.211c-2.46.555-8.615 3.156-12.032 8.346.064-3.595 3.156-14.542 12.032-8.346z" stroke-width=".265" stroke="#000" fill="#faf5d5"/>
  <path class="fil50 str1" d="M44.77 85.83c-.66 1.316 1.398 3.297-7.611 6.199-.071-3.728-.47-10.116 7.612-6.2z" fill="#faf5d5" stroke="#000" stroke-width=".265"/>
  <path class="fil50 str1" d="M42.495 90.036c.152.436 1.769 6.612-3.724 6.147-1.275-1.794-3.541-5.757 3.724-6.147z" fill="#faf5d5" stroke="#000" stroke-width=".265"/>
</svg>
