<svg xmlns="http://www.w3.org/2000/svg" width="425.702" height="108.348"><defs><filter id="a" color-interpolation-filters="sRGB"><feGaussianBlur stdDeviation="3 3" result="blur"/></filter><filter id="b" color-interpolation-filters="sRGB"><feGaussianBlur stdDeviation="3 3" result="blur"/></filter></defs><path d="M287.606 68.73c-3.386-.85-7.442-2.789-8.116-3.88-.244-.395.48-2.372 1.61-4.394l2.056-3.677 2.502 1.294c1.376.712 4.748 1.474 7.493 1.695 4.741.38 5.115.278 7.436-2.044 2.703-2.703 3.424-6.315 1.08-5.415-6.084 2.334-13.606.967-18.71-3.403-4.364-3.734-6.29-8.068-6.29-14.15 0-6 1.858-10.247 6.194-14.157 3.99-3.597 8.736-5.02 14.17-4.246 2.2.313 6.7.622 10 .686l6 .117.24 18.4c.16 12.154-.07 19.487-.677 21.6-2.136 7.446-7.995 11.67-16.762 12.087-2.86.136-6.562-.095-8.226-.513zm12.964-26.845c2.27-1.91 2.462-2.463 2.462-7.129 0-4.665-.191-5.218-2.462-7.128-3.612-3.04-7.355-2.815-10.818.648-2.322 2.322-2.72 3.271-2.72 6.48 0 3.21.398 4.159 2.72 6.48 3.463 3.464 7.206 3.689 10.818.65zM3.516 53.924l3.516-6.833V11.156h-4.8V.756h19.2v5.2c0 4.667-.164 5.2-1.6 5.2-1.552 0-1.6.534-1.6 17.843 0 17.379-.052 17.946-1.978 21.8-1.088 2.177-3.094 5.307-4.458 6.957-2.348 2.84-2.73 3-7.138 3H0zm54.726-1.388c-7.985-4.222-8.479-14.47-.925-19.167 2.45-1.524 4.029-1.812 9.915-1.81 7.27.003 7.962-.38 5.865-3.25-.917-1.255-2.107-1.552-6.2-1.55-2.786.002-6.337.297-7.89.656-2.708.627-2.885.53-4.247-2.327-1.609-3.374-1.631-3.341 4.272-6.178 5.112-2.456 15.674-2.501 18.941-.08 4.983 3.692 5.859 6.09 5.859 16.045v9.081h4.8v9.6h-7.134c-4.257 0-7.245-.337-7.412-.837-.18-.541-1.327-.4-3.241.4-4.171 1.743-8.592 1.538-12.603-.583zm13.269-7.47c2.304-1.094 2.72-1.706 2.72-4v-2.71h-4.936c-6.952 0-9.841 2.889-6.54 6.537 1.637 1.808 5.163 1.877 8.756.172zm118.32 7.786c-5.192-2.385-6.4-4.292-6.4-10.115 0-4.232.312-5.384 1.921-7.096 3.1-3.299 8.074-4.791 14.094-4.229 4.765.445 5.186.358 5.186-1.067 0-2.742-3.444-4.235-8.606-3.732-2.527.247-5.571.69-6.765.984-1.926.474-2.33.2-3.578-2.415-1.402-2.94-1.4-2.956.569-4.44 5.488-4.14 16.943-5.075 22.575-1.844 4.482 2.572 6.205 7.244 6.205 16.828v8.23h4.8v9.6h-7.6c-4.261 0-7.6-.333-7.6-.759 0-.417-1.249-.237-2.775.4-3.733 1.56-8.152 1.433-12.025-.345zm12.44-7.716c1.927-.996 2.36-1.731 2.36-4v-2.78h-4.452c-5.69 0-7.547.982-7.547 3.989 0 3.874 4.837 5.274 9.64 2.79zm-176.84 3.62v-4.8h5.6v-16.8h-5.6v-9.6h16v26.4h4.8v9.6h-20.8zm85.6 0v-4.8h5.6v-33.6h-5.6v-9.6h22.4v9.6h-5.6v33.665l6.6-.232 6.6-.233.24-4.6.24-4.6h11.12v19.2h-41.6zm44.8 0v-4.8h5.6v-16.8h-5.6v-9.6h16v26.4h4.8v9.6h-20.8zm71.2 0v-4.8h4.8v-16.8h-4.8v-9.6h8c7.273 0 8 .136 8 1.492 0 1.39.26 1.357 3.8-.467 7.157-3.686 16.466-1.215 19.091 5.069.719 1.72 1.11 5.765 1.11 11.48v8.826h5.6v9.6h-16.8v-12c0-10.933-.143-12.142-1.6-13.6-2.032-2.032-5.276-2.035-8.6-.008l-2.6 1.585v14.423h5.6v9.6h-21.6zM32.34 10.298c-2.915-2.293-2.915-6.39 0-8.684 2.796-2.199 5.528-2.094 7.928.306 2.503 2.503 2.503 5.57 0 8.073-2.4 2.4-5.132 2.505-7.928.305zm131.675 1.123c-.56-.225-1.578-1.494-2.263-2.819-1.027-1.986-1.075-2.823-.274-4.758 1.703-4.11 5.474-5.04 9.046-2.23 5.3 4.17-.143 12.368-6.51 9.807z" filter="url(#a)"/><path d="M287.606 68.73c-3.386-.85-7.442-2.789-8.116-3.88-.244-.395.48-2.372 1.61-4.394l2.056-3.677 2.502 1.294c1.376.712 4.748 1.474 7.493 1.695 4.741.38 5.115.278 7.436-2.044 2.703-2.703 3.424-6.315 1.08-5.415-6.084 2.334-13.606.967-18.71-3.403-4.364-3.734-6.29-8.068-6.29-14.15 0-6 1.858-10.247 6.194-14.157 3.99-3.597 8.736-5.02 14.17-4.246 2.2.313 6.7.622 10 .686l6 .117.24 18.4c.16 12.154-.07 19.487-.677 21.6-2.136 7.446-7.995 11.67-16.762 12.087-2.86.136-6.562-.095-8.226-.513zm12.964-26.845c2.27-1.91 2.462-2.463 2.462-7.129 0-4.665-.191-5.218-2.462-7.128-3.612-3.04-7.355-2.815-10.818.648-2.322 2.322-2.72 3.271-2.72 6.48 0 3.21.398 4.159 2.72 6.48 3.463 3.464 7.206 3.689 10.818.65zM3.516 53.924l3.516-6.833V11.156h-4.8V.756h19.2v5.2c0 4.667-.164 5.2-1.6 5.2-1.552 0-1.6.534-1.6 17.843 0 17.379-.052 17.946-1.978 21.8-1.088 2.177-3.094 5.307-4.458 6.957-2.348 2.84-2.73 3-7.138 3H0zm54.726-1.388c-7.985-4.222-8.479-14.47-.925-19.167 2.45-1.524 4.029-1.812 9.915-1.81 7.27.003 7.962-.38 5.865-3.25-.917-1.255-2.107-1.552-6.2-1.55-2.786.002-6.337.297-7.89.656-2.708.627-2.885.53-4.247-2.327-1.609-3.374-1.631-3.341 4.272-6.178 5.112-2.456 15.674-2.501 18.941-.08 4.983 3.692 5.859 6.09 5.859 16.045v9.081h4.8v9.6h-7.134c-4.257 0-7.245-.337-7.412-.837-.18-.541-1.327-.4-3.241.4-4.171 1.743-8.592 1.538-12.603-.583zm13.269-7.47c2.304-1.094 2.72-1.706 2.72-4v-2.71h-4.936c-6.952 0-9.841 2.889-6.54 6.537 1.637 1.808 5.163 1.877 8.756.172zm118.32 7.786c-5.192-2.385-6.4-4.292-6.4-10.115 0-4.232.312-5.384 1.921-7.096 3.1-3.299 8.074-4.791 14.094-4.229 4.765.445 5.186.358 5.186-1.067 0-2.742-3.444-4.235-8.606-3.732-2.527.247-5.571.69-6.765.984-1.926.474-2.33.2-3.578-2.415-1.402-2.94-1.4-2.956.569-4.44 5.488-4.14 16.943-5.075 22.575-1.844 4.482 2.572 6.205 7.244 6.205 16.828v8.23h4.8v9.6h-7.6c-4.261 0-7.6-.333-7.6-.759 0-.417-1.249-.237-2.775.4-3.733 1.56-8.152 1.433-12.025-.345zm12.44-7.716c1.927-.996 2.36-1.731 2.36-4v-2.78h-4.452c-5.69 0-7.547.982-7.547 3.989 0 3.874 4.837 5.274 9.64 2.79zm-176.84 3.62v-4.8h5.6v-16.8h-5.6v-9.6h16v26.4h4.8v9.6h-20.8zm85.6 0v-4.8h5.6v-33.6h-5.6v-9.6h22.4v9.6h-5.6v33.665l6.6-.232 6.6-.233.24-4.6.24-4.6h11.12v19.2h-41.6zm44.8 0v-4.8h5.6v-16.8h-5.6v-9.6h16v26.4h4.8v9.6h-20.8zm71.2 0v-4.8h4.8v-16.8h-4.8v-9.6h8c7.273 0 8 .136 8 1.492 0 1.39.26 1.357 3.8-.467 7.157-3.686 16.466-1.215 19.091 5.069.719 1.72 1.11 5.765 1.11 11.48v8.826h5.6v9.6h-16.8v-12c0-10.933-.143-12.142-1.6-13.6-2.032-2.032-5.276-2.035-8.6-.008l-2.6 1.585v14.423h5.6v9.6h-21.6zM32.34 10.298c-2.915-2.293-2.915-6.39 0-8.684 2.796-2.199 5.528-2.094 7.928.306 2.503 2.503 2.503 5.57 0 8.073-2.4 2.4-5.132 2.505-7.928.305zm131.675 1.123c-.56-.225-1.578-1.494-2.263-2.819-1.027-1.986-1.075-2.823-.274-4.758 1.703-4.11 5.474-5.04 9.046-2.23 5.3 4.17-.143 12.368-6.51 9.807z" fill="#fff"/><path d="M290.506 107.565c-1.41-.503-2.895-1.246-3.302-1.653-.665-.666-.629-.922.367-2.577a79.69 79.69 0 011.232-2.007c.069-.093 1.242.202 2.607.655 3.065 1.018 6.862.766 8.144-.54.489-.498 1.042-1.535 1.23-2.304.303-1.238.238-1.357-.569-1.045-1.827.708-5.278.854-7.294.31-2.541-.685-5.705-3.457-6.873-6.021-.556-1.22-.876-3.054-.88-5.037-.008-4.134 1.818-7.502 5.113-9.433 2.417-1.416 3.038-1.47 12.38-1.067l4.318.186.129 10.948c.135 11.48-.101 13.465-1.927 16.174-2.469 3.663-9.432 5.282-14.675 3.411zm9-15.705c1.362-1.145 1.477-1.477 1.477-4.274 0-2.798-.115-3.13-1.476-4.275-2.272-1.911-5.318-1.554-7.268.853-.998 1.232-1.098 4.832-.18 6.487 1.456 2.627 5.066 3.213 7.448 1.21zM34.516 98.538c-1.056-.416-2.837-.86-3.958-.986l-2.039-.23V91.664h2.617c2.151 0 2.83.213 3.816 1.2 1.394 1.393 4.75 1.664 6.308.507 1.637-1.216.323-2.288-4.148-3.383-4.905-1.202-6.894-2.325-7.91-4.466-1.622-3.417.807-7.577 5.103-8.739 2.612-.706 7.272-.345 8.845.686.641.42 1.929.764 2.861.764h1.696v5.756h-2.441c-1.902 0-2.622-.223-3.257-1.007-.979-1.209-4.684-1.774-6.224-.95-2.15 1.152-.994 2.256 3.307 3.159 6.98 1.465 9.583 3.756 8.92 7.849-.757 4.662-8.07 7.642-13.496 5.5zm23.993.063c-4.25-1.621-6.943-5.707-6.943-10.536 0-3.646 1.155-6.245 3.771-8.484 5.291-4.53 13.383-3.247 17.061 2.703 1.264 2.043 1.45 2.79 1.44 5.744-.019 4.852-1.81 7.971-5.73 9.981-2.48 1.271-7.075 1.555-9.599.592zm7.48-6.367c1.225-1.094 1.553-1.814 1.747-3.825.224-2.334.14-2.577-1.453-4.17-1.219-1.218-2.113-1.69-3.202-1.69-2.27 0-4.324 1.282-5.126 3.2-2.235 5.35 3.828 10.244 8.034 6.485zm32.66 6.302c-2.591-1.278-3.16-2.946-3.367-9.871l-.182-6.116h-1.39c-1.367 0-1.392-.047-1.392-2.638 0-2.598.022-2.639 1.405-2.639 1.346 0 1.418-.112 1.74-2.687l.336-2.688 2.937-1.39 2.936-1.39.139 4.077.139 4.078h4.28V82.55H102.041l-.243 4.636c-.133 2.55-.09 5.195.098 5.876.297 1.084.585 1.235 2.292 1.202 1.79-.035 1.976.08 2.236 1.38.478 2.391.344 2.674-1.516 3.19-2.522.7-4.419.61-6.26-.297zm54.268-.128c-2.419-1.098-3.566-2.72-3.841-5.433-.265-2.607.96-5.029 3.204-6.332 1.34-.78 2.523-.976 5.876-.974 4.355.002 4.986-.344 3.444-1.886-1.383-1.383-4.155-1.532-8.855-.476-1.034.232-1.335.017-2.038-1.458-.454-.952-.826-1.844-.826-1.981 0-.138 1.17-.786 2.601-1.441 6.559-3.003 13.288-1.528 15.117 3.314.28.742.51 3.603.51 6.356v5.005h2.879v5.756h-4.278c-2.552 0-4.344-.202-4.444-.502-.108-.324-.796-.24-1.944.24-2.362.987-4.963.921-7.405-.188zm7.877-4.821c1.204-.734 1.56-1.28 1.56-2.397v-1.446h-3.085c-3.271 0-4.59.69-4.59 2.399 0 2.355 3.33 3.142 6.115 1.444zm44.13 5.067c-2.704-.965-4.943-2.887-6.032-5.18-3.827-8.047.655-16.369 9.17-17.024 2.604-.2 3.306-.057 5.563 1.136 3.159 1.67 5.086 4.746 5.59 8.92l.332 2.759h-7.97c-8.57 0-9.006.146-6.965 2.337 1.932 2.074 4.795 2.498 8.777 1.3l2.26-.68 1.05 2.16c1.042 2.145 1.043 2.166.103 2.854-2.608 1.907-8.527 2.613-11.877 1.418zm7.797-14.208c0-.276-.53-1.032-1.178-1.68-2.041-2.04-6.07-1.369-7.47 1.247-.48.896-.311.934 4.074.934 2.862 0 4.574-.187 4.574-.501zm24.823 14.208c-2.705-.965-4.944-2.887-6.033-5.18-3.827-8.047.655-16.369 9.17-17.024 2.604-.2 3.306-.057 5.563 1.136 3.159 1.67 5.086 4.746 5.59 8.92l.332 2.759h-7.97c-8.57 0-9.006.146-6.965 2.337 1.932 2.074 4.795 2.498 8.777 1.3l2.26-.68 1.05 2.16c1.042 2.145 1.043 2.166.103 2.854-2.608 1.907-8.527 2.613-11.877 1.418zm7.796-14.208c0-.276-.53-1.032-1.178-1.68-2.041-2.04-6.07-1.369-7.47 1.247-.48.896-.311.934 4.074.934 2.862 0 4.574-.187 4.574-.501zm119.23 14.322c-2.502-.699-6.105-4.326-6.876-6.92-1.42-4.782-.458-9.12 2.703-12.186 3.173-3.08 6.933-4.035 11.206-2.848 3.89 1.08 7.077 5.656 7.086 10.172l.005 2.279h-15.799l.392 1.079c1.03 2.834 5.226 3.946 9.75 2.584l2.172-.653 1.045 2.15c.575 1.183.981 2.206.903 2.274-.078.067-1.113.613-2.3 1.213-2.508 1.267-7.367 1.67-10.286.856zm7.408-14.522c0-1.222-2.004-2.657-3.712-2.657-1.41 0-4.443 1.128-4.443 1.652 0 .104-.13.53-.29.948-.253.657.29.758 4.077.758 3.511 0 4.368-.137 4.368-.7zm16.845 14.372c-2.535-.79-5.129-3.146-6.34-5.756-1.185-2.554-1.193-7.49-.016-10.073 1.168-2.564 4.331-5.337 6.873-6.023 6.979-1.887 13.033 2.377 13.692 9.641l.26 2.858h-7.982c-4.916 0-7.982.18-7.982.472 0 .26.611 1.156 1.359 1.992 1.137 1.273 1.782 1.555 3.957 1.731 1.58.128 3.394-.065 4.628-.494 2.228-.773 2.332-.719 3.672 1.92.768 1.512.759 1.562-.424 2.337-3.19 2.09-7.73 2.632-11.697 1.395zm7.62-14.355c0-.377-.594-1.154-1.32-1.726-1.724-1.36-5.167-1.096-6.457.497-.472.583-.858 1.252-.858 1.487 0 .234 1.943.426 4.317.426 3.42 0 4.317-.142 4.317-.684zM76.966 95.98v-2.878H80.325V82.55h-3.358V77.272H80.325V74.58c0-6.21 4.81-9.596 11.136-7.84.98.273 1.905.696 2.056.94.152.246-.173 1.325-.72 2.4-.936 1.832-1.097 1.934-2.607 1.651-2.638-.495-3.629.368-3.629 3.16v2.382h3.838V82.55H86.56v10.553h3.838v5.756H76.967zm40.16 2.54c-.119-.21-1.342-3.781-2.72-7.936-2.311-6.98-2.59-7.555-3.661-7.555-1.098 0-1.16-.155-1.16-2.879v-2.878H120.62v2.878c0 2.75-.053 2.879-1.2 2.879-.659 0-1.198.128-1.198.285 0 .712 2.05 6.939 2.226 6.762.109-.109 1.129-2.98 2.266-6.38l2.068-6.184h6.088l2.23 6.956 2.23 6.955 1.053-3.358c.58-1.846 1.17-3.735 1.312-4.197.189-.612-.01-.84-.733-.84-.892 0-.992-.288-.992-2.878v-2.878H147.002v5.757l-1.559.003-1.559.003-2.809 7.912-2.808 7.912h-6.056l-2.278-6.836-2.278-6.835-2.237 6.715-2.237 6.716-2.918.142c-1.605.078-3.016-.03-3.135-.24zm58.177-2.54v-2.878h2.878V83.03h-2.878v-5.757h4.557c3.73 0 4.557.13 4.557.72 0 .887.048.887 1.744.003.848-.442 2.705-.718 4.852-.72l3.477-.003V84.947h-2.878c-2.558 0-2.878-.106-2.878-.959 0-1.08-.832-1.216-2.575-.421-1.453.662-1.727 1.62-1.735 6.057l-.007 3.478h4.796v5.756H175.303zm79.628 0v-2.878H258.29V83.03h-3.358v-5.757h5.037c4.158 0 5.037.126 5.037.72 0 .896-.012.897 1.965-.12 2.376-1.222 7.154-1.142 8.883.15 2.924 2.182 3.289 3.167 3.473 9.359l.17 5.721h1.39c1.377 0 1.388.023 1.388 2.878v2.878h-9.594v-6.89c0-6.245-.093-7.01-.994-8.155-1.24-1.577-3.606-1.695-5.417-.27-1.197.941-1.264 1.222-1.264 5.277v4.282h3.358v5.756h-13.432zm56.604 0v-2.878h3.358V83.03H311.536v-5.757h9.594v15.83h2.878v5.756h-12.472zm16.31 0v-2.878h2.878V83.03h-2.878v-5.757h4.796c4.36 0 4.797.082 4.797.894 0 .834.156.815 2.279-.28 4.291-2.21 9.873-.728 11.447 3.04.43 1.03.665 3.457.665 6.884v5.292h3.358v5.756h-10.074v-7.195c0-6.556-.085-7.28-.959-8.155-1.219-1.218-3.164-1.22-5.157-.005l-1.559.95V93.103H340.797v5.757h-12.951zm78.19 0v-2.878h3.357V83.03h-3.358v-5.757h4.797c3.87 0 4.797.135 4.797.695 0 .607.21.607 1.663 0 .918-.383 3.177-.695 5.037-.695h3.373V84.947h-2.878c-2.558 0-2.878-.106-2.878-.96 0-1.188-1.7-1.299-3.251-.212-.967.677-1.066 1.148-1.066 5.037v4.29h4.317v5.756H406.035zm-90.444-23.243c-.648-.648-1.178-1.737-1.178-2.42 0-1.6 1.999-3.598 3.598-3.598 1.6 0 3.598 1.998 3.598 3.598 0 1.6-1.999 3.597-3.598 3.597-.684 0-1.773-.53-2.42-1.177z" filter="url(#b)"/><path d="M290.506 107.565c-1.41-.503-2.895-1.246-3.302-1.653-.665-.666-.629-.922.367-2.577a79.69 79.69 0 011.232-2.007c.069-.093 1.242.202 2.607.655 3.065 1.018 6.862.766 8.144-.54.489-.498 1.042-1.535 1.23-2.304.303-1.238.238-1.357-.569-1.045-1.827.708-5.278.854-7.294.31-2.541-.685-5.705-3.457-6.873-6.021-.556-1.22-.876-3.054-.88-5.037-.008-4.134 1.818-7.502 5.113-9.433 2.417-1.416 3.038-1.47 12.38-1.067l4.318.186.129 10.948c.135 11.48-.101 13.465-1.927 16.174-2.469 3.663-9.432 5.282-14.675 3.411zm9-15.705c1.362-1.145 1.477-1.477 1.477-4.274 0-2.798-.115-3.13-1.476-4.275-2.272-1.911-5.318-1.554-7.268.853-.998 1.232-1.098 4.832-.18 6.487 1.456 2.627 5.066 3.213 7.448 1.21zM34.516 98.538c-1.056-.416-2.837-.86-3.958-.986l-2.039-.23V91.664h2.617c2.151 0 2.83.213 3.816 1.2 1.394 1.393 4.75 1.664 6.308.507 1.637-1.216.323-2.288-4.148-3.383-4.905-1.202-6.894-2.325-7.91-4.466-1.622-3.417.807-7.577 5.103-8.739 2.612-.706 7.272-.345 8.845.686.641.42 1.929.764 2.861.764h1.696v5.756h-2.441c-1.902 0-2.622-.223-3.257-1.007-.979-1.209-4.684-1.774-6.224-.95-2.15 1.152-.994 2.256 3.307 3.159 6.98 1.465 9.583 3.756 8.92 7.849-.757 4.662-8.07 7.642-13.496 5.5zm23.993.063c-4.25-1.621-6.943-5.707-6.943-10.536 0-3.646 1.155-6.245 3.771-8.484 5.291-4.53 13.383-3.247 17.061 2.703 1.264 2.043 1.45 2.79 1.44 5.744-.019 4.852-1.81 7.971-5.73 9.981-2.48 1.271-7.075 1.555-9.599.592zm7.48-6.367c1.225-1.094 1.553-1.814 1.747-3.825.224-2.334.14-2.577-1.453-4.17-1.219-1.218-2.113-1.69-3.202-1.69-2.27 0-4.324 1.282-5.126 3.2-2.235 5.35 3.828 10.244 8.034 6.485zm32.66 6.302c-2.591-1.278-3.16-2.946-3.367-9.871l-.182-6.116h-1.39c-1.367 0-1.392-.047-1.392-2.638 0-2.598.022-2.639 1.405-2.639 1.346 0 1.418-.112 1.74-2.687l.336-2.688 2.937-1.39 2.936-1.39.139 4.077.139 4.078h4.28V82.55H102.041l-.243 4.636c-.133 2.55-.09 5.195.098 5.876.297 1.084.585 1.235 2.292 1.202 1.79-.035 1.976.08 2.236 1.38.478 2.391.344 2.674-1.516 3.19-2.522.7-4.419.61-6.26-.297zm54.268-.128c-2.419-1.098-3.566-2.72-3.841-5.433-.265-2.607.96-5.029 3.204-6.332 1.34-.78 2.523-.976 5.876-.974 4.355.002 4.986-.344 3.444-1.886-1.383-1.383-4.155-1.532-8.855-.476-1.034.232-1.335.017-2.038-1.458-.454-.952-.826-1.844-.826-1.981 0-.138 1.17-.786 2.601-1.441 6.559-3.003 13.288-1.528 15.117 3.314.28.742.51 3.603.51 6.356v5.005h2.879v5.756h-4.278c-2.552 0-4.344-.202-4.444-.502-.108-.324-.796-.24-1.944.24-2.362.987-4.963.921-7.405-.188zm7.877-4.821c1.204-.734 1.56-1.28 1.56-2.397v-1.446h-3.085c-3.271 0-4.59.69-4.59 2.399 0 2.355 3.33 3.142 6.115 1.444zm44.13 5.067c-2.704-.965-4.943-2.887-6.032-5.18-3.827-8.047.655-16.369 9.17-17.024 2.604-.2 3.306-.057 5.563 1.136 3.159 1.67 5.086 4.746 5.59 8.92l.332 2.759h-7.97c-8.57 0-9.006.146-6.965 2.337 1.932 2.074 4.795 2.498 8.777 1.3l2.26-.68 1.05 2.16c1.042 2.145 1.043 2.166.103 2.854-2.608 1.907-8.527 2.613-11.877 1.418zm7.797-14.208c0-.276-.53-1.032-1.178-1.68-2.041-2.04-6.07-1.369-7.47 1.247-.48.896-.311.934 4.074.934 2.862 0 4.574-.187 4.574-.501zm24.823 14.208c-2.705-.965-4.944-2.887-6.033-5.18-3.827-8.047.655-16.369 9.17-17.024 2.604-.2 3.306-.057 5.563 1.136 3.159 1.67 5.086 4.746 5.59 8.92l.332 2.759h-7.97c-8.57 0-9.006.146-6.965 2.337 1.932 2.074 4.795 2.498 8.777 1.3l2.26-.68 1.05 2.16c1.042 2.145 1.043 2.166.103 2.854-2.608 1.907-8.527 2.613-11.877 1.418zm7.796-14.208c0-.276-.53-1.032-1.178-1.68-2.041-2.04-6.07-1.369-7.47 1.247-.48.896-.311.934 4.074.934 2.862 0 4.574-.187 4.574-.501zm119.23 14.322c-2.502-.699-6.105-4.326-6.876-6.92-1.42-4.782-.458-9.12 2.703-12.186 3.173-3.08 6.933-4.035 11.206-2.848 3.89 1.08 7.077 5.656 7.086 10.172l.005 2.279h-15.799l.392 1.079c1.03 2.834 5.226 3.946 9.75 2.584l2.172-.653 1.045 2.15c.575 1.183.981 2.206.903 2.274-.078.067-1.113.613-2.3 1.213-2.508 1.267-7.367 1.67-10.286.856zm7.408-14.522c0-1.222-2.004-2.657-3.712-2.657-1.41 0-4.443 1.128-4.443 1.652 0 .104-.13.53-.29.948-.253.657.29.758 4.077.758 3.511 0 4.368-.137 4.368-.7zm16.845 14.372c-2.535-.79-5.129-3.146-6.34-5.756-1.185-2.554-1.193-7.49-.016-10.073 1.168-2.564 4.331-5.337 6.873-6.023 6.979-1.887 13.033 2.377 13.692 9.641l.26 2.858h-7.982c-4.916 0-7.982.18-7.982.472 0 .26.611 1.156 1.359 1.992 1.137 1.273 1.782 1.555 3.957 1.731 1.58.128 3.394-.065 4.628-.494 2.228-.773 2.332-.719 3.672 1.92.768 1.512.759 1.562-.424 2.337-3.19 2.09-7.73 2.632-11.697 1.395zm7.62-14.355c0-.377-.594-1.154-1.32-1.726-1.724-1.36-5.167-1.096-6.457.497-.472.583-.858 1.252-.858 1.487 0 .234 1.943.426 4.317.426 3.42 0 4.317-.142 4.317-.684zM76.966 95.98v-2.878H80.325V82.55h-3.358V77.272H80.325V74.58c0-6.21 4.81-9.596 11.136-7.84.98.273 1.905.696 2.056.94.152.246-.173 1.325-.72 2.4-.936 1.832-1.097 1.934-2.607 1.651-2.638-.495-3.629.368-3.629 3.16v2.382h3.838V82.55H86.56v10.553h3.838v5.756H76.967zm40.16 2.54c-.119-.21-1.342-3.781-2.72-7.936-2.311-6.98-2.59-7.555-3.661-7.555-1.098 0-1.16-.155-1.16-2.879v-2.878H120.62v2.878c0 2.75-.053 2.879-1.2 2.879-.659 0-1.198.128-1.198.285 0 .712 2.05 6.939 2.226 6.762.109-.109 1.129-2.98 2.266-6.38l2.068-6.184h6.088l2.23 6.956 2.23 6.955 1.053-3.358c.58-1.846 1.17-3.735 1.312-4.197.189-.612-.01-.84-.733-.84-.892 0-.992-.288-.992-2.878v-2.878H147.002v5.757l-1.559.003-1.559.003-2.809 7.912-2.808 7.912h-6.056l-2.278-6.836-2.278-6.835-2.237 6.715-2.237 6.716-2.918.142c-1.605.078-3.016-.03-3.135-.24zm58.177-2.54v-2.878h2.878V83.03h-2.878v-5.757h4.557c3.73 0 4.557.13 4.557.72 0 .887.048.887 1.744.003.848-.442 2.705-.718 4.852-.72l3.477-.003V84.947h-2.878c-2.558 0-2.878-.106-2.878-.959 0-1.08-.832-1.216-2.575-.421-1.453.662-1.727 1.62-1.735 6.057l-.007 3.478h4.796v5.756H175.303zm79.628 0v-2.878H258.29V83.03h-3.358v-5.757h5.037c4.158 0 5.037.126 5.037.72 0 .896-.012.897 1.965-.12 2.376-1.222 7.154-1.142 8.883.15 2.924 2.182 3.289 3.167 3.473 9.359l.17 5.721h1.39c1.377 0 1.388.023 1.388 2.878v2.878h-9.594v-6.89c0-6.245-.093-7.01-.994-8.155-1.24-1.577-3.606-1.695-5.417-.27-1.197.941-1.264 1.222-1.264 5.277v4.282h3.358v5.756h-13.432zm56.604 0v-2.878h3.358V83.03H311.536v-5.757h9.594v15.83h2.878v5.756h-12.472zm16.31 0v-2.878h2.878V83.03h-2.878v-5.757h4.796c4.36 0 4.797.082 4.797.894 0 .834.156.815 2.279-.28 4.291-2.21 9.873-.728 11.447 3.04.43 1.03.665 3.457.665 6.884v5.292h3.358v5.756h-10.074v-7.195c0-6.556-.085-7.28-.959-8.155-1.219-1.218-3.164-1.22-5.157-.005l-1.559.95V93.103H340.797v5.757h-12.951zm78.19 0v-2.878h3.357V83.03h-3.358v-5.757h4.797c3.87 0 4.797.135 4.797.695 0 .607.21.607 1.663 0 .918-.383 3.177-.695 5.037-.695h3.373V84.947h-2.878c-2.558 0-2.878-.106-2.878-.96 0-1.188-1.7-1.299-3.251-.212-.967.677-1.066 1.148-1.066 5.037v4.29h4.317v5.756H406.035zm-90.444-23.243c-.648-.648-1.178-1.737-1.178-2.42 0-1.6 1.999-3.598 3.598-3.598 1.6 0 3.598 1.998 3.598 3.598 0 1.6-1.999 3.597-3.598 3.597-.684 0-1.773-.53-2.42-1.177z" fill="#fff"/></svg>