<svg xmlns="http://www.w3.org/2000/svg" viewBox="0 0 360 360" width="360" height="360">
  <g fill="#fff" fill-opacity=".5">
    <path d="M180 180L197.48 0h-35.54zM179.71 180l-17.48 180h35.54z"/>
    <path d="M179.71 180.14l180 17.48v-35.53zM179.71 179.86L-.289 162.38v35.53zM179.92 179.65L23.292 0H0l-.289 23.261z"/>
    <path d="M179.72 179.84L338.4 360H360v-22.04z"/>
    <path d="M179.81 179.96L360 22.718V0h-13.79zM179.61 179.75L0 336.4-.289 360h23.41z"/>
    <path d="M179.92 180L118.44 0 81.621-.352zM179.65 180.11L241.25 360h36.63z"/>
    <path d="M179.71 180.24L360 118.57V81.632zM179.59 179.98L0 241.33v36.99zM179.7 179.71L0 91.149l-.289 36.341z"/>
    <path d="M179.6 179.96L360 267.03l-.29-33.52z"/>
    <path d="M179.73 180.03L268.92 0h-36.95zM179.46 179.93L91.588 360h35.542z"/>
  </g>
</svg>
